<svg width="150" height="38" viewBox="0 0 150 38" fill="none" xmlns="http://www.w3.org/2000/svg">
<path d="M7 12.417H20.1014L7.21465 25.3037L9.29659 27.3857L22.1834 14.4989V27.6003H22.2667L25.1277 24.7394V12.6816L21.9187 9.47266H9.85929L7 12.3319V12.417Z" fill="black"/>
<path d="M42.6972 19.7178H45.1912V22.0351H42.6972V25.3343H39.9282V22.0351H32.6816V20.0124L40.1835 11.1162H42.6972V19.7178ZM36.2165 19.7178H39.9282V15.1813L36.2165 19.7178Z" fill="black"/>
<path d="M52.1474 15.6723C53.1162 15.6723 53.9803 15.8621 54.7397 16.2418C55.5121 16.6214 56.1144 17.1844 56.5464 17.9307C56.9915 18.677 57.2141 19.5737 57.2141 20.6211C57.2141 22.1791 56.7232 23.3966 55.7412 24.2739C54.7593 25.138 53.3781 25.57 51.5976 25.57C50.3668 25.57 49.3326 25.367 48.4947 24.9612C47.6699 24.5553 47.0415 24.0186 46.6094 23.3509C46.1905 22.6832 45.9482 21.95 45.8828 21.1514H48.7107C49.1296 22.67 50.0854 23.4294 51.5779 23.4294C52.4943 23.4294 53.1883 23.1741 53.6596 22.6635C54.144 22.1529 54.3862 21.4656 54.3862 20.6015C54.3862 19.7243 54.144 19.0435 53.6596 18.5591C53.1751 18.0616 52.4878 17.8129 51.5976 17.8129C50.4193 17.8129 49.5159 18.3038 48.8875 19.2857L46.3345 19.0304L47.2968 11.1162H56.3893V13.4335H49.5945L49.1624 16.6935C49.8694 16.0126 50.8644 15.6723 52.1474 15.6723Z" fill="black"/>
<path d="M68.1121 11.1162C70.089 11.1162 71.876 11.5875 73.4733 12.5302C75.0837 13.4597 75.8888 15.3581 75.8888 18.2253C75.8888 21.0925 75.0837 22.9974 73.4733 23.94C71.876 24.8695 70.089 25.3343 68.1121 25.3343H63.3203V11.1162H68.1121ZM68.0139 22.8599C68.9172 22.8468 69.7224 22.7421 70.4294 22.5457C71.1494 22.3362 71.7582 21.8911 72.2557 21.2103C72.7663 20.5295 73.0216 19.5345 73.0216 18.2253C73.0216 16.916 72.7663 15.921 72.2557 15.2403C71.7582 14.5594 71.1494 14.1143 70.4294 13.9048C69.7224 13.6953 68.9172 13.5906 68.0139 13.5906H66.0893V22.8599H68.0139Z" fill="black"/>
<path d="M82.3871 14.5334C83.5264 14.5334 84.5015 14.7887 85.3135 15.2993C86.1383 15.7968 86.7471 16.5103 87.1398 17.4399C87.5455 18.3694 87.7154 19.4627 87.6504 20.7195H79.7163C79.808 21.6097 80.0894 22.284 80.5607 22.7423C81.032 23.2004 81.6474 23.4296 82.4067 23.4296C83.0747 23.4296 83.611 23.2659 84.0174 22.9386C84.4358 22.6113 84.7175 22.1989 84.8618 21.7014H87.5915C87.3559 22.9321 86.7728 23.8878 85.8437 24.5686C84.9268 25.2363 83.7817 25.5702 82.4067 25.5702C81.2808 25.5702 80.3054 25.341 79.4806 24.8828C78.6558 24.4246 78.0274 23.7831 77.5953 22.9583C77.1633 22.1203 76.9473 21.1516 76.9473 20.0518C76.9473 18.9651 77.1699 18.0029 77.615 17.165C78.0602 16.327 78.6951 15.679 79.5199 15.2208C80.3447 14.7625 81.3005 14.5334 82.3871 14.5334ZM84.9207 18.9913C84.8422 18.2844 84.5869 17.7149 84.1548 17.2828C83.7356 16.8508 83.1397 16.6347 82.3674 16.6347C81.6605 16.6347 81.0845 16.8311 80.6393 17.2239C80.1942 17.6167 79.8996 18.2058 79.7555 18.9913H84.9207Z" fill="black"/>
<path d="M99.1675 14.7691V24.9025C99.1675 26.2771 98.7294 27.3834 97.8517 28.2213C96.9748 29.0723 95.6915 29.4978 94.0026 29.4978C92.5366 29.4978 91.3711 29.1705 90.507 28.5159C89.6429 27.8743 89.1323 27.0103 88.9752 25.9237H91.6657C91.9799 26.8924 92.7594 27.3769 94.0026 27.3769C94.8667 27.3769 95.4951 27.1609 95.8879 26.7288C96.2807 26.3099 96.4771 25.688 96.4771 24.8632V23.4492C95.7444 24.5751 94.6379 25.1381 93.1582 25.1381C92.2291 25.1381 91.4104 24.9286 90.7034 24.5097C90.01 24.0777 89.4662 23.4623 89.0734 22.6637C88.6943 21.865 88.5039 20.9224 88.5039 19.8358C88.5039 18.7491 88.6943 17.8065 89.0734 17.0079C89.4662 16.2092 90.01 15.6004 90.7034 15.1815C91.4104 14.7495 92.2291 14.5334 93.1582 14.5334C94.6507 14.5334 95.7572 15.0964 96.4771 16.2223V14.7691H99.1675ZM93.8848 23.0172C94.7625 23.0172 95.4362 22.7226 95.9075 22.1335C96.3789 21.5443 96.6145 20.7784 96.6145 19.8358C96.6145 18.8931 96.3789 18.1273 95.9075 17.5381C95.4362 16.949 94.7625 16.6544 93.8848 16.6544C92.995 16.6544 92.3273 16.9555 91.8817 17.5577C91.4497 18.1469 91.2336 18.9062 91.2336 19.8358C91.2336 20.7653 91.4497 21.5312 91.8817 22.1335C92.3273 22.7226 92.995 23.0172 93.8848 23.0172Z" fill="black"/>
<path d="M106.511 14.6514C106.733 14.6514 106.956 14.671 107.178 14.7103V17.4007C106.943 17.3615 106.694 17.3418 106.432 17.3418C105.607 17.3418 104.992 17.5382 104.586 17.931C104.18 18.3106 103.925 18.7623 103.82 19.286C103.715 19.7966 103.663 20.3922 103.663 21.0731V25.3346H100.973V14.7692H103.624V16.5759C104.2 15.2929 105.162 14.6514 106.511 14.6514Z" fill="black"/>
<path d="M113.198 14.5334C114.337 14.5334 115.313 14.7887 116.124 15.2993C116.949 15.7968 117.557 16.5103 117.95 17.4399C118.356 18.3694 118.526 19.4627 118.461 20.7195H110.527C110.619 21.6097 110.9 22.284 111.371 22.7423C111.843 23.2004 112.458 23.4296 113.217 23.4296C113.885 23.4296 114.422 23.2659 114.828 22.9386C115.247 22.6113 115.529 22.1989 115.672 21.7014H118.402C118.166 22.9321 117.584 23.8878 116.654 24.5686C115.738 25.2363 114.592 25.5702 113.217 25.5702C112.092 25.5702 111.116 25.341 110.291 24.8828C109.466 24.4246 108.838 23.7831 108.406 22.9583C107.974 22.1203 107.758 21.1516 107.758 20.0518C107.758 18.9651 107.981 18.0029 108.426 17.165C108.871 16.327 109.506 15.679 110.33 15.2208C111.155 14.7625 112.111 14.5334 113.198 14.5334ZM115.731 18.9913C115.652 18.2844 115.397 17.7149 114.965 17.2828C114.547 16.8508 113.951 16.6347 113.178 16.6347C112.471 16.6347 111.895 16.8311 111.45 17.2239C111.005 17.6167 110.71 18.2058 110.566 18.9913H115.731Z" fill="black"/>
<path d="M124.717 14.5332C125.856 14.5332 126.831 14.7885 127.643 15.2991C128.468 15.7965 129.077 16.5101 129.47 17.4397C129.875 18.3692 130.045 19.4624 129.98 20.7193H122.046C122.138 21.6095 122.419 22.2838 122.891 22.742C123.362 23.2002 123.977 23.4294 124.737 23.4294C125.404 23.4294 125.941 23.2657 126.347 22.9384C126.766 22.611 127.047 22.1986 127.192 21.7012H129.921C129.686 22.9318 129.103 23.8875 128.173 24.5684C127.257 25.2361 126.111 25.5699 124.737 25.5699C123.611 25.5699 122.635 25.3408 121.811 24.8826C120.986 24.4243 120.357 23.7828 119.925 22.958C119.493 22.1201 119.277 21.1513 119.277 20.0516C119.277 18.9649 119.499 18.0026 119.945 17.1647C120.39 16.3268 121.025 15.6787 121.85 15.2205C122.675 14.7623 123.63 14.5332 124.717 14.5332ZM127.25 18.9911C127.172 18.2841 126.917 17.7146 126.485 17.2826C126.065 16.8505 125.469 16.6345 124.698 16.6345C123.991 16.6345 123.414 16.8309 122.969 17.2237C122.524 17.6164 122.229 18.2056 122.086 18.9911H127.25Z" fill="black"/>
<path d="M135.855 25.5699C134.257 25.5699 133.02 25.2164 132.143 24.5095C131.266 23.8025 130.768 22.9122 130.65 21.8387H133.341C133.694 22.9645 134.552 23.5275 135.913 23.5275C136.542 23.5275 137.033 23.4162 137.386 23.1937C137.74 22.958 137.917 22.6569 137.917 22.2903C137.917 21.8976 137.72 21.6226 137.327 21.4655C136.947 21.2953 136.293 21.1251 135.364 20.9549C134.5 20.8109 133.76 20.6407 133.144 20.4443C132.529 20.2348 131.999 19.9075 131.554 19.4624C131.109 19.0172 130.886 18.4216 130.886 17.6753C130.886 16.6149 131.331 15.8293 132.221 15.3187C133.112 14.795 134.198 14.5332 135.481 14.5332C136.895 14.5332 138.022 14.8408 138.859 15.4562C139.71 16.0715 140.214 16.8963 140.371 17.9306H137.681C137.524 17.4986 137.269 17.1647 136.915 16.9291C136.574 16.6934 136.077 16.5756 135.423 16.5756C134.86 16.5756 134.408 16.6672 134.067 16.8505C133.74 17.0338 133.577 17.2826 133.577 17.5968C133.577 17.8717 133.707 18.1008 133.969 18.2841C134.244 18.4543 134.546 18.5787 134.873 18.6572C135.2 18.7358 135.763 18.8536 136.562 19.0107C137.975 19.2725 139.003 19.6195 139.645 20.0516C140.286 20.4836 140.607 21.1382 140.607 22.0154C140.607 23.0889 140.195 23.953 139.37 24.6076C138.545 25.2491 137.373 25.5699 135.855 25.5699Z" fill="black"/>
<path d="M145.237 17.4398C144.647 17.4398 144.098 17.3088 143.587 17.047C143.089 16.7721 142.69 16.3858 142.389 15.8884C142.101 15.3909 141.957 14.8148 141.957 14.1602C141.957 13.5056 142.101 12.9295 142.389 12.432C142.69 11.9345 143.089 11.5548 143.587 11.293C144.098 11.0181 144.647 10.8806 145.237 10.8806C145.826 10.8806 146.369 11.0181 146.867 11.293C147.377 11.5548 147.783 11.9411 148.084 12.4517C148.385 12.9491 148.536 13.5186 148.536 14.1602C148.536 14.8017 148.385 15.3778 148.084 15.8884C147.783 16.3858 147.377 16.7721 146.867 17.047C146.369 17.3088 145.826 17.4398 145.237 17.4398ZM145.237 15.7902C145.682 15.7902 146.035 15.6462 146.297 15.3581C146.572 15.057 146.709 14.6577 146.709 14.1602C146.709 13.6627 146.572 13.2699 146.297 12.9819C146.035 12.6938 145.682 12.5499 145.237 12.5499C144.805 12.5499 144.451 12.6938 144.176 12.9819C143.914 13.2699 143.783 13.6627 143.783 14.1602C143.783 14.6577 143.914 15.057 144.176 15.3581C144.451 15.6462 144.805 15.7902 145.237 15.7902Z" fill="black"/>
<path fill-rule="evenodd" clip-rule="evenodd" d="M145.248 12.6978C144.436 12.6978 143.779 13.3555 143.779 14.1669C143.779 14.9782 144.436 15.636 145.248 15.636C146.06 15.636 146.717 14.9782 146.717 14.1669C146.717 13.3555 146.06 12.6978 145.248 12.6978ZM145.248 17.4563C147.065 17.4563 148.538 15.9835 148.538 14.1669C148.538 12.3502 147.065 10.8774 145.248 10.8774C143.431 10.8774 141.959 12.3502 141.959 14.1669C141.959 15.9835 143.431 17.4563 145.248 17.4563Z" fill="black"/>
</svg>
