<svg width="28" height="28" viewBox="0 0 28 28" fill="none" xmlns="http://www.w3.org/2000/svg">
<path d="M11.6667 8.16667L11.0647 9.793C10.276 11.9257 9.88167 12.992 9.1035 13.7702C8.32533 14.5483 7.259 14.9427 5.12633 15.7313L3.5 16.3333L5.12633 16.9353C7.259 17.724 8.32533 18.1195 9.1035 18.8965C9.88167 19.6735 10.276 20.741 11.0647 22.8737L11.6667 24.5L12.2687 22.8737C13.0573 20.741 13.4528 19.6747 14.2298 18.8965C15.0068 18.1183 16.0743 17.724 18.207 16.9353L19.8333 16.3333L18.207 15.7313C16.0743 14.9427 15.008 14.5483 14.2298 13.7702C13.4517 12.992 13.0573 11.9257 12.2687 9.793L11.6667 8.16667ZM21 3.5L20.7422 4.1965C20.4038 5.11117 20.2347 5.5685 19.9022 5.901C19.5685 6.23467 19.1112 6.40383 18.1965 6.741L17.5 7L18.1977 7.25783C19.1112 7.59617 19.5685 7.76533 19.901 8.09783C20.2347 8.4315 20.4038 8.88883 20.741 9.8035L21 10.5L21.2578 9.8035C21.5962 8.88883 21.7653 8.4315 22.0978 8.099C22.4315 7.76533 22.8888 7.59617 23.8035 7.259L24.5 7L23.8023 6.74217C22.8888 6.40383 22.4315 6.23467 22.099 5.90217C21.7653 5.5685 21.5962 5.11117 21.259 4.1965L21 3.5Z" stroke="black" stroke-width="1.5" stroke-linecap="round" stroke-linejoin="round"/>
</svg>
