<svg width="10" height="8" viewBox="0 0 10 8" fill="none" xmlns="http://www.w3.org/2000/svg">
<path d="M1.27589 0.583002C1.04558 0.430635 0.735369 0.493813 0.583002 0.724115C0.430635 0.954416 0.493813 1.26463 0.724115 1.417L1 1L1.27589 0.583002ZM9.35592 6.95219C9.62651 6.89708 9.80119 6.63306 9.74608 6.36247L8.84805 1.95299C8.79294 1.6824 8.52891 1.50772 8.25832 1.56283C7.98773 1.61793 7.81305 1.88196 7.86816 2.15255L8.66641 6.07209L4.74688 6.87034C4.47629 6.92545 4.30161 7.18948 4.35671 7.46007C4.41182 7.73065 4.67585 7.90534 4.94644 7.85023L9.35592 6.95219ZM1 1L0.724115 1.417L8.98025 6.87925L9.25614 6.46225L9.53202 6.04525L1.27589 0.583002L1 1Z" fill="black"/>
</svg>
