<svg width="127" height="35" viewBox="0 0 127 35" fill="none" xmlns="http://www.w3.org/2000/svg">
<mask id="mask0_54_167" style="mask-type:luminance" maskUnits="userSpaceOnUse" x="0" y="0" width="127" height="35">
<path d="M127 0.5H0V34.5H127V0.5Z" fill="white"/>
</mask>
<g mask="url(#mask0_54_167)">
<path d="M32.2325 12.9139C33.1746 13.8561 33.1746 15.3838 32.2325 16.326L15.1141 33.4446C14.1719 34.3867 12.6442 34.3867 11.702 33.4446L0.929306 22.6719C-0.0128937 21.7294 -0.0128937 20.2019 0.929306 19.2597L18.0478 2.14122C18.99 1.19902 20.5177 1.19902 21.4599 2.14122L32.2325 12.9139Z" fill="black"/>
<path d="M36.2533 16.326C37.1955 15.3838 37.1955 13.8561 36.2533 12.9139L28.3321 4.99282L31.1839 2.14122C32.126 1.19902 33.6537 1.19902 34.5958 2.14122L45.3684 12.9139C46.3106 13.8561 46.3106 15.3838 45.3684 16.326L28.2501 33.4446C27.3079 34.3867 25.7803 34.3867 24.8377 33.4446L21.9863 30.5928L36.2533 16.326Z" fill="black"/>
<path d="M64.26 18.9974C65.169 19.167 65.916 19.6217 66.502 20.3615C67.088 21.1013 67.381 21.949 67.381 22.9049C67.381 23.7678 67.165 24.5306 66.734 25.1937C66.317 25.8411 65.709 26.3494 64.907 26.7193C64.106 27.0893 63.158 27.2742 62.063 27.2742H55.104V11.1367H61.763C62.857 11.1367 63.797 11.314 64.583 11.6685C65.385 12.023 65.986 12.5162 66.387 13.1482C66.803 13.7801 67.011 14.4968 67.011 15.2983C67.011 16.2385 66.756 17.0246 66.248 17.6565C65.755 18.2884 65.092 18.7354 64.26 18.9974ZM58.341 17.7952H61.3C62.071 17.7952 62.665 17.6257 63.081 17.2866C63.497 16.9321 63.705 16.4311 63.705 15.7838C63.705 15.1365 63.497 14.6355 63.081 14.281C62.665 13.9265 62.071 13.7493 61.3 13.7493H58.341V17.7952ZM61.601 24.6388C62.387 24.6388 62.996 24.4538 63.427 24.0839C63.875 23.7139 64.098 23.19 64.098 22.5116C64.098 21.8179 63.867 21.2787 63.404 20.8933C62.942 20.4925 62.318 20.2922 61.531 20.2922H58.341V24.6388H61.601Z" fill="black"/>
<path d="M74.723 27.4829C73.49 27.4829 72.38 27.2131 71.394 26.6735C70.408 26.1186 69.629 25.3405 69.059 24.3384C68.504 23.3367 68.227 22.1807 68.227 20.8706C68.227 19.5605 68.512 18.4045 69.082 17.4026C69.668 16.4008 70.461 15.6301 71.463 15.0906C72.465 14.5358 73.583 14.2583 74.816 14.2583C76.048 14.2583 77.166 14.5358 78.168 15.0906C79.17 15.6301 79.956 16.4008 80.526 17.4026C81.112 18.4045 81.405 19.5605 81.405 20.8706C81.405 22.1807 81.104 23.3367 80.503 24.3384C79.917 25.3405 79.116 26.1186 78.098 26.6735C77.097 27.2131 75.972 27.4829 74.723 27.4829ZM74.723 24.6621C75.309 24.6621 75.856 24.5234 76.364 24.2459C76.888 23.9532 77.305 23.5217 77.613 22.9515C77.921 22.3809 78.075 21.6873 78.075 20.8706C78.075 19.6529 77.752 18.7204 77.104 18.0731C76.473 17.4103 75.694 17.0789 74.769 17.0789C73.844 17.0789 73.066 17.4103 72.434 18.0731C71.818 18.7204 71.509 19.6529 71.509 20.8706C71.509 22.0882 71.81 23.0283 72.411 23.691C73.028 24.3384 73.798 24.6621 74.723 24.6621Z" fill="black"/>
<path d="M86.09 16.4545C86.506 15.7764 87.046 15.2446 87.709 14.8592C88.387 14.4739 89.158 14.2812 90.021 14.2812V17.68H89.165C88.148 17.68 87.377 17.9188 86.853 18.3966C86.345 18.8744 86.09 19.7068 86.09 20.8936V27.2746H82.854V14.4662H86.09V16.4545Z" fill="black"/>
<path d="M90.444 20.8242C90.444 19.5295 90.699 18.3812 91.207 17.3794C91.731 16.3775 92.44 15.6069 93.334 15.0674C94.228 14.5279 95.222 14.2582 96.316 14.2582C97.149 14.2582 97.943 14.4432 98.698 14.8131C99.453 15.1676 100.054 15.6454 100.501 16.2465V10.166H103.784V27.2746H100.501V25.379C100.101 26.0107 99.538 26.5194 98.814 26.9046C98.089 27.2902 97.249 27.4828 96.294 27.4828C95.215 27.4828 94.228 27.2054 93.334 26.6505C92.44 26.0956 91.731 25.3171 91.207 24.3154C90.699 23.298 90.444 22.1343 90.444 20.8242ZM100.525 20.8705C100.525 20.0844 100.37 19.414 100.062 18.8591C99.754 18.2888 99.338 17.8572 98.814 17.5643C98.29 17.2561 97.727 17.102 97.126 17.102C96.525 17.102 95.97 17.2484 95.461 17.5412C94.952 17.8341 94.536 18.2656 94.213 18.836C93.905 19.3908 93.75 20.0536 93.75 20.8242C93.75 21.5951 93.905 22.2731 94.213 22.8589C94.536 23.4291 94.952 23.8682 95.461 24.1767C95.985 24.4847 96.54 24.6391 97.126 24.6391C97.727 24.6391 98.29 24.4927 98.814 24.1996C99.338 23.8916 99.754 23.4597 100.062 22.9052C100.37 22.3346 100.525 21.6566 100.525 20.8705Z" fill="black"/>
<path d="M117.927 20.5931C117.927 21.0555 117.896 21.4717 117.835 21.8417H108.471C108.549 22.7665 108.872 23.4908 109.442 24.0147C110.013 24.5391 110.714 24.8008 111.546 24.8008C112.749 24.8008 113.604 24.2845 114.113 23.2519H117.604C117.234 24.4848 116.525 25.5021 115.477 26.3035C114.429 27.0897 113.141 27.4829 111.615 27.4829C110.383 27.4829 109.273 27.2131 108.286 26.6735C107.315 26.1186 106.552 25.3405 105.998 24.3384C105.458 23.3367 105.188 22.1807 105.188 20.8706C105.188 19.5451 105.458 18.3813 105.998 17.3795C106.537 16.3776 107.292 15.607 108.263 15.0675C109.234 14.528 110.352 14.2583 111.615 14.2583C112.833 14.2583 113.92 14.5204 114.875 15.0444C115.847 15.5684 116.594 16.316 117.118 17.287C117.658 18.2426 117.927 19.3447 117.927 20.5931ZM114.575 19.6683C114.559 18.836 114.259 18.1733 113.673 17.68C113.088 17.1714 112.371 16.9171 111.523 16.9171C110.722 16.9171 110.044 17.1637 109.489 17.6569C108.949 18.1347 108.618 18.8052 108.494 19.6683H114.575Z" fill="black"/>
<path d="M122.602 16.4545C123.018 15.7764 123.558 15.2446 124.22 14.8592C124.899 14.4739 125.669 14.2812 126.533 14.2812V17.68H125.677C124.66 17.68 123.889 17.9188 123.365 18.3966C122.856 18.8744 122.602 19.7068 122.602 20.8936V27.2746H119.365V14.4662H122.602V16.4545Z" fill="black"/>
</g>
</svg>
