<svg width="48" height="58" viewBox="0 0 48 58" fill="none" xmlns="http://www.w3.org/2000/svg">
<mask id="mask0_54_215" style="mask-type:luminance" maskUnits="userSpaceOnUse" x="0" y="0" width="48" height="58">
<path d="M48 0H0V58H48V0Z" fill="white"/>
</mask>
<g mask="url(#mask0_54_215)">
<path d="M28.1438 41.9521C24.3256 40.5241 20.3985 40.3045 16.7985 41.293C14.2894 41.9521 11.8895 43.2703 9.70776 44.918L8.18048 46.2362L7.74414 46.6755L8.72593 47.5543C8.83502 47.5543 8.83504 47.6642 8.94413 47.774C9.1623 47.9937 9.3805 48.1035 9.70776 48.3232L10.3623 48.7626L11.0168 48.2135C11.1259 48.1036 11.3441 47.8839 11.5623 47.774C13.5259 46.1263 15.7076 45.0278 17.9985 44.4787C20.9439 43.7097 24.1075 43.8196 27.271 45.0279C29.8892 46.0166 35.2346 47.2247 41.6708 44.4787L41.889 44.3687L42.2163 44.0392C42.2163 43.9293 42.3254 43.9293 42.4345 43.8195C42.9799 43.1605 43.5254 42.5013 43.9617 41.7325L46.1434 38.3271L42.6526 40.3043C37.5254 43.1604 32.8346 43.7097 28.1438 41.9521Z" fill="black"/>
<path d="M13.1992 30.0888C16.1446 29.3199 19.3082 29.4298 22.4719 30.6381C25.9627 31.9563 34.908 33.8236 44.9442 24.7064L47.126 22.5094L46.9077 21.9602C46.7986 21.5209 46.5805 20.9716 46.3623 20.4224L45.8169 18.8845L44.726 19.9829C44.6169 20.2027 44.3988 20.3125 44.1805 20.5322C39.3806 25.4753 31.9626 30.5283 23.4536 27.4526C19.6356 26.0246 15.7083 25.8048 12.1083 26.7934C8.61752 27.7821 5.56301 29.6494 2.7267 32.2858V32.1759L1.09037 33.9335C1.09037 34.0433 0.981298 34.0433 0.87221 34.1531L0.544922 34.4827L0.654017 34.9221C0.763107 35.4713 0.981278 36.0205 1.09037 36.5698L1.74491 38.3273L2.8358 36.8993C2.94489 36.6796 3.16306 36.5698 3.27215 36.3501C5.56301 34.263 8.72661 31.2971 13.1992 30.0888Z" fill="black"/>
<path d="M2.61816 28.1115C5.12722 25.4752 7.9635 23.8275 11.018 22.9487C13.9634 22.1798 17.127 22.2897 20.2906 23.498C30.1086 27.1229 38.6176 21.1912 42.3265 18.0056L43.7447 16.5776L44.2902 16.1383L43.8538 15.4791C43.5265 15.1496 43.3084 14.7103 42.9811 14.2708L42.3265 13.3921L41.563 14.161C41.4539 14.2708 41.2357 14.4905 41.1265 14.6004C36.5448 18.9943 29.454 23.498 21.3815 20.4223C17.5633 18.9943 13.6362 18.7745 10.0362 19.7631C7.74533 20.4223 5.56355 21.5207 3.38177 22.9487L1.09089 24.8162C0.872712 25.0358 0.763624 25.1457 0.545446 25.3653L0.327287 25.585V25.9145C0.218198 26.6835 0.218185 27.4524 0.109096 28.1115L0 30.8577L1.85453 28.8804C2.0727 28.6607 2.2909 28.3312 2.61816 28.1115Z" fill="black"/>
<path d="M31.3088 49.4218C30.9816 49.3119 30.7634 49.202 30.4362 49.0921C26.618 47.6641 22.6908 47.4444 19.0908 48.4331C18.3272 48.6528 17.5637 48.8725 16.8 49.2021L14.1818 50.4103L13.5273 50.7399L15.7091 51.5088C16.3637 51.7285 17.0181 51.9483 17.6727 52.1679L18 52.2778L18.3272 52.1679C18.6545 52.0581 18.9818 51.8383 19.3091 51.8383C19.5272 51.8383 19.7454 51.7285 19.9635 51.6186C22.5817 50.9596 25.418 50.9596 28.4725 51.9481C28.7997 52.0581 29.018 52.1679 29.3453 52.2778L29.8907 52.4975L30.2179 52.3876C30.9816 52.1679 31.8542 51.9483 32.5088 51.6186L35.5633 50.5203L32.3997 49.7513C32.0725 49.6414 31.6361 49.5316 31.3088 49.4218Z" fill="black"/>
<path d="M48.0008 26.6836L46.3645 28.3313C46.1463 28.551 45.9281 28.7706 45.71 28.9903C41.2373 33.2743 34.0375 37.8879 25.9648 34.8122C22.1467 33.3842 18.2195 33.1645 14.6195 34.1532C11.2378 35.1418 8.18328 36.8993 5.45605 39.5357L4.03791 41.0735L3.60156 41.6227L4.03791 42.2817C4.36518 42.7212 4.58337 43.0507 4.80155 43.4901L5.45605 44.4787L6.21969 43.4901C6.32878 43.3802 6.54695 43.1606 6.65604 43.0507C9.27418 40.1947 12.1105 38.4372 15.3832 37.5584C18.3286 36.7894 21.4922 36.8993 24.6557 38.1075C27.383 39.0962 30.2193 39.4257 33.0556 39.0962C38.0737 38.547 43.0918 35.691 46.8008 32.5055C47.0191 32.2858 47.2371 32.176 47.4554 31.9562L47.7826 31.6266V31.2971C47.7826 30.638 47.8917 29.8691 47.8917 29.21L48.0008 26.6836Z" fill="black"/>
<path d="M6.54433 16.578C7.19887 16.2484 7.96251 16.0287 8.61704 15.809C11.5625 15.04 14.726 15.1499 17.8896 16.3582C19.9623 17.1272 22.035 17.4567 24.3259 17.4567C28.9076 17.4567 33.4893 15.809 37.7438 12.6235L39.9255 10.8659L38.9438 10.097C38.6166 9.76741 38.1801 9.43788 37.7438 9.21819L37.0892 8.77881L36.5438 9.21819C36.3257 9.32804 36.2166 9.54773 35.9984 9.65757C30.2167 14.0515 24.435 15.2598 18.9805 13.1727C15.0533 11.7447 11.1261 11.4151 7.19887 12.6235C6.8716 12.7333 6.54434 12.8431 6.10798 12.953L5.88982 13.0628L5.56254 13.3923C5.56254 13.5022 5.45347 13.5022 5.34438 13.612C4.90802 14.2712 4.36256 14.8203 3.9262 15.4795L1.85352 18.665L5.23528 16.9075C5.78072 16.9075 6.21706 16.6878 6.54433 16.578Z" fill="black"/>
<path d="M15.4909 9.1081L15.8181 9.21794C17.2363 9.76718 19.4181 10.3164 22.1452 10.3164C24.9816 10.3164 27.7088 9.65732 30.436 8.55886L33.8178 6.91116L31.527 6.14225C30.8725 5.92255 30.2179 5.70287 29.4542 5.59302H29.127L28.7997 5.70284C28.4725 5.81268 28.1451 6.0324 27.8179 6.14225C24.5452 7.35056 21.2726 7.57026 18.109 6.69149C17.7817 6.58164 17.4544 6.47178 17.1272 6.36193L16.8 6.25208L16.4726 6.36193C15.8181 6.58162 15.1636 6.80133 14.509 7.13086L12 8.22933L14.6181 8.99823C14.8363 8.8884 15.1636 8.99825 15.4909 9.1081Z" fill="black"/>
</g>
</svg>
