<svg width="28" height="28" viewBox="0 0 28 28" fill="none" xmlns="http://www.w3.org/2000/svg">
<path d="M15.1106 13.8659C15.6827 13.6789 16.2992 13.6773 16.8723 13.8612M16.8723 13.8612C17.9164 14.1961 18.6666 15.1142 18.6666 16.1957C18.6666 17.5607 17.4731 18.6667 15.9996 18.6667H11.3329C10.2293 18.6667 9.33325 17.8372 9.33325 16.8141C9.33325 15.7909 10.2293 14.9602 11.3329 14.9602C11.4632 14.9611 11.5931 14.9728 11.7214 14.9952M16.8723 13.8612C16.7241 12.6281 15.5936 11.6667 14.2228 11.6667C12.7493 11.6667 11.5558 12.7727 11.5558 14.1377C11.5565 14.4315 11.6127 14.7224 11.7214 14.9952M11.7214 14.9952C11.9839 15.0431 12.2289 15.1387 12.4448 15.2729" stroke="black" stroke-width="1.5" stroke-linecap="round"/>
<path d="M25.6666 13.7644C25.6666 10.6937 25.6666 9.15721 24.7683 8.15971C24.6858 8.06766 24.5986 7.98003 24.5069 7.89721C23.5094 7.00004 21.9729 7.00004 18.9023 7.00004H18.4659C17.1208 7.00004 16.4476 7.00004 15.8199 6.82154C15.4755 6.72308 15.1435 6.58528 14.8306 6.41087C14.2613 6.09471 13.7853 5.61754 12.8333 4.66671L12.1916 4.02504C11.8719 3.70537 11.7133 3.54671 11.5453 3.40671C10.8227 2.80779 9.93634 2.44064 9.00192 2.35321C8.78492 2.33337 8.55859 2.33337 8.10825 2.33337C7.07809 2.33337 6.56359 2.33337 6.13425 2.41504C5.2124 2.58914 4.36442 3.03703 3.70094 3.7003C3.03747 4.36357 2.5893 5.21141 2.41492 6.13321C2.33325 6.56371 2.33325 7.07937 2.33325 8.10837M25.6561 18.6667C25.6141 21.56 25.3994 23.1992 24.2993 24.2994C22.9331 25.6667 20.7328 25.6667 16.3333 25.6667H11.6666C7.26709 25.6667 5.06675 25.6667 3.70059 24.2994C2.33442 22.932 2.33325 20.7329 2.33325 16.3334V12.8334" stroke="black" stroke-width="1.5" stroke-linecap="round"/>
</svg>
