<svg width="20" height="22" viewBox="0 0 20 22" fill="none" xmlns="http://www.w3.org/2000/svg">
<path d="M7.744 1.48438H13.4592V4.99011H12.4565M7.744 1.48438V4.99011M7.744 1.48438H5.33758M12.4565 4.99011H7.744M12.4565 4.99011V7.29392M7.744 4.99011H5.33758M5.33758 1.48438V4.99011M5.33758 1.48438H2.98127M5.33758 4.99011H2.98127M2.98127 4.99011V1.48438M2.98127 4.99011H1.62768M2.98127 1.48438H0.625V4.99011H1.62768M1.62768 4.99011V7.29392M1.62768 7.29392H0.625V10.8998H1.62768M1.62768 7.29392H2.98127M1.62768 10.8998V13.2036M1.62768 10.8998H2.98127M2.98127 7.29392V10.8998M2.98127 7.29392H5.33758M12.4565 7.29392H13.4592V10.8998H7.744M12.4565 7.29392H7.744M7.744 10.8998H5.33758M7.744 10.8998V7.29392M7.744 7.29392H5.33758M1.62768 13.2036H0.625V16.7094H2.98127M1.62768 13.2036H2.98127M2.98127 10.8998H5.33758M2.98127 16.7094H5.33758M2.98127 16.7094V13.2036M2.98127 13.2036H5.33758M11.4539 16.7094V13.2036M11.4539 16.7094H7.744M11.4539 16.7094C11.4539 19.0332 14.0608 20.2151 15.3643 20.5156C16.7012 20.2485 19.375 19.1133 19.375 16.7094V11.8013L15.3643 10.399L11.4539 11.8013V13.2036M11.4539 13.2036H7.744M7.744 16.7094V13.2036M7.744 16.7094H5.33758M7.744 13.2036H5.33758M5.33758 7.29392V10.8998M5.33758 13.2036V16.7094M14.3616 15.3071L15.3643 16.3087L17.0688 14.6059" stroke="black"/>
</svg>
