<svg width="127" height="25" viewBox="0 0 127 25" fill="none" xmlns="http://www.w3.org/2000/svg">
<path d="M119.462 23.1564C118.057 23.1564 116.828 22.8466 115.776 22.2269C114.732 21.5983 113.919 20.7263 113.335 19.6108C112.752 18.4865 112.46 17.1763 112.46 15.6801C112.46 14.1131 112.748 12.7587 113.322 11.6166C113.897 10.4657 114.697 9.58044 115.723 8.96074C116.757 8.33224 117.968 8.01794 119.356 8.01794C120.797 8.01794 122.022 8.34994 123.03 9.01394C124.046 9.67784 124.807 10.6251 125.311 11.8556C125.823 13.0862 126.044 14.5514 125.974 16.2511H123.587V15.4012C123.56 13.6395 123.202 12.3248 122.512 11.4573C121.823 10.5808 120.797 10.1426 119.436 10.1426C117.977 10.1426 116.868 10.6118 116.107 11.5502C115.347 12.4886 114.967 13.8343 114.967 15.5872C114.967 17.2781 115.347 18.5883 116.107 19.5179C116.868 20.4474 117.95 20.9122 119.356 20.9122C120.302 20.9122 121.124 20.6953 121.823 20.2615C122.521 19.8277 123.069 19.2036 123.467 18.3891L125.735 19.1726C125.178 20.4386 124.338 21.4213 123.215 22.1206C122.101 22.8112 120.85 23.1564 119.462 23.1564ZM114.171 16.2511V14.3522H124.754V16.2511H114.171Z" fill="black"/>
<path d="M105.212 22.7582V8.41636H107.321V11.8823L106.976 11.4308C107.144 10.9882 107.36 10.5809 107.626 10.2091C107.9 9.83726 108.205 9.53186 108.541 9.29276C108.912 8.99176 109.332 8.76166 109.8 8.60226C110.269 8.44296 110.746 8.34996 111.233 8.32336C111.719 8.28796 112.174 8.31896 112.599 8.41636V10.6341C112.104 10.5013 111.56 10.4658 110.967 10.5278C110.375 10.5898 109.827 10.8067 109.323 11.1785C108.864 11.5061 108.505 11.9045 108.249 12.3737C108.001 12.8429 107.829 13.3519 107.732 13.9008C107.635 14.4408 107.586 14.9941 107.586 15.5607V22.7582H105.212Z" fill="black"/>
<path d="M95.956 23.1564C94.886 23.1564 93.989 22.9617 93.264 22.5722C92.548 22.1738 92.004 21.6514 91.633 21.0052C91.27 20.3589 91.089 19.6507 91.089 18.8805C91.089 18.128 91.23 17.4773 91.513 16.9284C91.805 16.3707 92.212 15.9103 92.733 15.5473C93.255 15.1755 93.878 14.8834 94.603 14.6709C95.284 14.485 96.044 14.3256 96.884 14.1928C97.733 14.0512 98.59 13.9228 99.457 13.8077C100.323 13.6926 101.132 13.582 101.884 13.4757L101.035 13.9671C101.062 12.6923 100.805 11.7494 100.266 11.1385C99.735 10.5277 98.816 10.2223 97.507 10.2223C96.641 10.2223 95.881 10.4215 95.226 10.8199C94.581 11.2094 94.126 11.8468 93.86 12.7321L91.619 12.0548C91.964 10.7977 92.632 9.81064 93.622 9.09354C94.612 8.37644 95.916 8.01794 97.534 8.01794C98.833 8.01794 99.948 8.25254 100.876 8.72174C101.813 9.18204 102.485 9.88144 102.891 10.8199C103.095 11.2625 103.223 11.745 103.276 12.2673C103.329 12.7808 103.356 13.3208 103.356 13.8874V22.758H101.26V19.3187L101.751 19.6374C101.212 20.7971 100.456 21.6736 99.483 22.2667C98.52 22.8599 97.344 23.1564 95.956 23.1564ZM96.314 21.1778C97.162 21.1778 97.896 21.0273 98.515 20.7263C99.143 20.4164 99.647 20.0136 100.027 19.5179C100.407 19.0132 100.655 18.4644 100.77 17.8712C100.902 17.4286 100.973 16.9372 100.982 16.3972C101 15.8483 101.008 15.4278 101.008 15.1357L101.831 15.4942C101.061 15.6004 100.306 15.7023 99.563 15.7996C98.82 15.897 98.117 16.0032 97.454 16.1183C96.791 16.2246 96.194 16.353 95.664 16.5034C95.275 16.6274 94.908 16.7867 94.563 16.9815C94.228 17.1763 93.953 17.4286 93.741 17.7384C93.538 18.0394 93.436 18.4157 93.436 18.8672C93.436 19.2567 93.533 19.6285 93.728 19.9827C93.931 20.3368 94.241 20.6245 94.656 20.8458C95.08 21.0671 95.633 21.1778 96.314 21.1778Z" fill="black"/>
<path d="M76.66 22.7581L72.283 8.40295L74.631 8.41625L77.827 18.907L81.049 8.41625H83.131L86.34 18.907L89.55 8.41625H91.884L87.507 22.7581H85.545L82.084 11.8557L78.622 22.7581H76.66Z" fill="black"/>
<path d="M64.871 23.1564C63.802 23.1564 62.904 22.9617 62.179 22.5722C61.463 22.1738 60.919 21.6514 60.548 21.0052C60.186 20.3589 60.004 19.6507 60.004 18.8805C60.004 18.128 60.146 17.4773 60.429 16.9284C60.721 16.3707 61.127 15.9103 61.649 15.5473C62.171 15.1755 62.794 14.8834 63.519 14.6709C64.2 14.485 64.96 14.3256 65.8 14.1928C66.648 14.0512 67.506 13.9228 68.372 13.8077C69.239 13.6926 70.048 13.582 70.799 13.4757L69.95 13.9671C69.977 12.6923 69.721 11.7494 69.181 11.1385C68.651 10.5277 67.731 10.2223 66.423 10.2223C65.557 10.2223 64.796 10.4215 64.142 10.8199C63.497 11.2094 63.041 11.8468 62.776 12.7321L60.535 12.0548C60.88 10.7977 61.547 9.81064 62.537 9.09354C63.527 8.37644 64.832 8.01794 66.45 8.01794C67.749 8.01794 68.863 8.25254 69.791 8.72174C70.729 9.18204 71.4 9.88144 71.807 10.8199C72.01 11.2625 72.139 11.745 72.192 12.2673C72.245 12.7808 72.271 13.3208 72.271 13.8874V22.758H70.176V19.3187L70.667 19.6374C70.127 20.7971 69.371 21.6736 68.399 22.2667C67.435 22.8599 66.26 23.1564 64.871 23.1564ZM65.23 21.1778C66.078 21.1778 66.812 21.0273 67.431 20.7263C68.059 20.4164 68.562 20.0136 68.943 19.5179C69.323 19.0132 69.57 18.4644 69.685 17.8712C69.818 17.4286 69.889 16.9372 69.897 16.3972C69.915 15.8483 69.924 15.4278 69.924 15.1357L70.746 15.4942C69.977 15.6004 69.221 15.7023 68.478 15.7996C67.736 15.897 67.033 16.0032 66.37 16.1183C65.707 16.2246 65.11 16.353 64.58 16.5034C64.191 16.6274 63.824 16.7867 63.479 16.9815C63.143 17.1763 62.869 17.4286 62.657 17.7384C62.453 18.0394 62.352 18.4157 62.352 18.8672C62.352 19.2567 62.449 19.6285 62.643 19.9827C62.847 20.3368 63.156 20.6245 63.572 20.8458C63.996 21.0671 64.549 21.1778 65.23 21.1778Z" fill="black"/>
<path d="M56.052 22.7581V3.2373H58.412V22.7581H56.052Z" fill="black"/>
<path d="M47.9142 23.1564C46.5085 23.1564 45.2796 22.8466 44.2275 22.2269C43.1844 21.5983 42.371 20.7263 41.7874 19.6108C41.2041 18.4865 40.9121 17.1763 40.9121 15.6801C40.9121 14.1131 41.1996 12.7587 41.7742 11.6166C42.3489 10.4657 43.1488 9.58044 44.1746 8.96074C45.2088 8.33224 46.42 8.01794 47.8081 8.01794C49.2491 8.01794 50.4737 8.34994 51.4816 9.01394C52.4981 9.67784 53.2585 10.6251 53.7623 11.8556C54.2753 13.0862 54.4961 14.5514 54.4255 16.2511H52.0383V15.4012C52.012 13.6395 51.6539 12.3248 50.9643 11.4573C50.2748 10.5808 49.2491 10.1426 47.8876 10.1426C46.429 10.1426 45.3194 10.6118 44.559 11.5502C43.7989 12.4886 43.4186 13.8343 43.4186 15.5872C43.4186 17.2781 43.7989 18.5883 44.559 19.5179C45.3194 20.4474 46.4024 20.9122 47.8081 20.9122C48.754 20.9122 49.5763 20.6953 50.2748 20.2615C50.973 19.8277 51.5214 19.2036 51.9192 18.3891L54.1868 19.1726C53.6298 20.4386 52.79 21.4213 51.6671 22.1206C50.553 22.8112 49.3023 23.1564 47.9142 23.1564ZM42.6229 16.2511V14.3522H53.2056V16.2511H42.6229Z" fill="black"/>
<path d="M32.993 23.1565C31.6582 23.1565 30.5133 22.8245 29.5584 22.1605C28.6036 21.4877 27.8653 20.5802 27.3438 19.4382C26.8311 18.2962 26.5745 17.0081 26.5745 15.5739C26.5745 14.1397 26.8311 12.8516 27.3438 11.7096C27.8653 10.5675 28.6036 9.66904 29.5584 9.01394C30.5133 8.34994 31.6537 8.01794 32.9798 8.01794C34.3325 8.01794 35.4684 8.34554 36.388 9.00064C37.3075 9.65574 38.0013 10.5543 38.47 11.6963C38.9475 12.8383 39.1862 14.1309 39.1862 15.5739C39.1862 16.9992 38.9475 18.2873 38.47 19.4382C38.0013 20.5802 37.3075 21.4877 36.388 22.1605C35.4684 22.8245 34.337 23.1565 32.993 23.1565ZM33.2849 20.9919C34.2485 20.9919 35.0397 20.7617 35.6587 20.3014C36.2776 19.8322 36.7329 19.1903 37.0246 18.3759C37.3252 17.5525 37.4754 16.6185 37.4754 15.5739C37.4754 14.5115 37.3252 13.5775 37.0246 12.7719C36.7329 11.9575 36.2818 11.3245 35.6718 10.873C35.0619 10.4126 34.2883 10.1825 33.351 10.1825C32.3785 10.1825 31.5741 10.4215 30.9375 10.8995C30.3099 11.3776 29.8414 12.0239 29.5318 12.8383C29.2312 13.6528 29.081 14.5647 29.081 15.5739C29.081 16.592 29.2357 17.5127 29.545 18.336C29.8546 19.1505 30.3186 19.7967 30.9375 20.2748C31.5651 20.7529 32.3477 20.9919 33.2849 20.9919ZM37.4754 22.7581V12.2009H37.2101V3.63574H39.5841V22.7581H37.4754Z" fill="black"/>
<path d="M124.291 5.14522V5.06862L125.83 2.47422H124.426V1.90222H126.9V1.97882L125.371 4.56862H126.855V5.14522H124.291Z" fill="black"/>
<path d="M121.086 5.14522L122.076 1.90222H122.989L123.978 5.14522H123.349L122.467 2.28502H122.584L121.716 5.14522H121.086ZM121.68 4.46962V3.89752H123.389V4.46962H121.68Z" fill="black"/>
<path fill-rule="evenodd" clip-rule="evenodd" d="M11.9836 0.5H0V24.5H11.9836C18.602 24.5 23.9673 19.1274 23.9673 12.5C23.9673 5.8726 18.602 0.5 11.9836 0.5ZM13.1073 21.0806C12.832 20.9994 12.5495 20.6711 12.4895 20.357C12.4506 20.1522 12.4965 20.011 12.7896 19.4427C13.9759 17.1481 14.4913 15.037 14.4913 12.4777C14.4913 10.003 14.0359 8.0756 12.9026 5.7669C12.6589 5.2726 12.4612 4.8102 12.4612 4.7431C12.4612 4.496 12.666 4.1394 12.8884 4.0018C13.1921 3.8111 13.704 3.8465 13.9511 4.0759C14.0465 4.1642 14.2901 4.5666 14.4948 4.969C15.3069 6.5611 15.8612 8.3086 16.1365 10.1266C16.306 11.2527 16.3413 13.3849 16.2036 14.4157C15.953 16.3149 15.4516 18.0129 14.6467 19.6721C14.1594 20.6747 13.8558 21.0877 13.6016 21.0877C13.5522 21.0877 13.4675 21.1018 13.418 21.1159C13.3686 21.1301 13.2274 21.1159 13.1073 21.0806ZM9.8063 19.3544C9.3826 19.2309 9.0754 18.7084 9.199 18.3201C9.2272 18.2247 9.4285 17.7905 9.6439 17.3528C10.5512 15.4995 10.929 13.5155 10.7454 11.5669C10.5936 9.9642 10.3076 8.9546 9.5838 7.479C9.1002 6.487 9.0754 6.3352 9.3579 5.9328C9.6262 5.5515 10.297 5.4915 10.6465 5.8127C10.8901 6.0351 11.6492 7.6202 11.9422 8.5168C12.9096 11.4822 12.7613 14.6699 11.5221 17.5823C10.8831 19.0755 10.4347 19.538 9.8063 19.3544ZM5.852 16.9292C5.9156 17.2081 6.1415 17.487 6.4028 17.6034C6.5193 17.6564 6.717 17.6846 6.8406 17.6741C7.2466 17.6211 7.4478 17.4022 7.8539 16.5797C8.56 15.1429 8.8142 14.0733 8.8177 12.5165C8.8212 11.0021 8.5494 9.8195 7.8856 8.4568C7.4549 7.5707 7.2042 7.3272 6.7205 7.3272C6.4346 7.3272 6.3463 7.3589 6.1415 7.5531C5.7285 7.945 5.7391 8.1426 6.2298 9.1346C7.3454 11.3974 7.3349 13.625 6.191 15.9407C5.8803 16.5691 5.8132 16.7597 5.852 16.9292ZM3.2253 15.9725C3.017 15.8878 2.7805 15.6054 2.7098 15.3583C2.6322 15.0829 2.6957 14.8641 3.0064 14.3522C3.4089 13.692 3.5007 13.339 3.5007 12.4777C3.5007 11.6163 3.4089 11.2598 3.0064 10.6031C2.8687 10.3807 2.7346 10.1125 2.7028 10.0066C2.5721 9.5723 2.9358 9.0393 3.423 8.9475C3.8361 8.8698 4.1185 9.0534 4.4998 9.6465C5.5978 11.3621 5.5978 13.6497 4.4998 15.3512C4.1115 15.9478 3.6807 16.1596 3.2253 15.9725Z" fill="black"/>
</svg>
