<svg width="24" height="24" viewBox="0 0 24 24" fill="none" xmlns="http://www.w3.org/2000/svg">
<g clip-path="url(#clip0_54_648)">
<path d="M17.25 22.5L15.646 21.7405C15.0052 21.4351 14.4638 20.9549 14.0841 20.3552C13.7044 19.7555 13.5019 19.0607 13.5 18.3509V13.5H21V18.3509C20.9981 19.0607 20.7957 19.7556 20.416 20.3554C20.0363 20.9552 19.4948 21.4355 18.854 21.7409L17.25 22.5ZM15 15V18.3509C15.0012 18.7766 15.1227 19.1934 15.3505 19.5532C15.5783 19.9129 15.9032 20.2009 16.2876 20.384L17.25 20.8396L18.2124 20.384C18.5968 20.2009 18.9217 19.9129 19.1495 19.5532C19.3773 19.1934 19.4988 18.7766 19.5 18.3509V15H15Z" fill="black"/>
<path d="M12 21H4.5V3.00001H10.5V7.50001C10.5011 7.89749 10.6596 8.27835 10.9406 8.55941C11.2217 8.84046 11.6025 8.99887 12 9.00001H16.5V11.25H18V7.50001C18.0027 7.40144 17.984 7.30346 17.9451 7.21282C17.9063 7.12218 17.8482 7.04105 17.775 6.97501L12.525 1.72501C12.459 1.65176 12.3778 1.59371 12.2872 1.55486C12.1966 1.51601 12.0986 1.4973 12 1.50001H4.5C4.10253 1.50116 3.72166 1.65957 3.44061 1.94062C3.15955 2.22168 3.00115 2.60254 3 3.00001V21C3.00115 21.3975 3.15955 21.7783 3.44061 22.0594C3.72166 22.3405 4.10253 22.4989 4.5 22.5H12V21ZM12 3.30001L16.2 7.50001H12V3.30001Z" fill="black"/>
</g>
<defs>
<clipPath id="clip0_54_648">
<rect width="24" height="24" fill="white"/>
</clipPath>
</defs>
</svg>
