<svg width="28" height="22" viewBox="0 0 28 22" fill="none" xmlns="http://www.w3.org/2000/svg">
<path d="M23.9129 0.419983H4.08626C3.20221 0.419983 2.35436 0.771172 1.72924 1.39629C1.10412 2.02141 0.75293 2.86926 0.75293 3.75332V18.2466C0.75293 19.1307 1.10412 19.9785 1.72924 20.6037C2.35436 21.2288 3.20221 21.58 4.08626 21.58H23.9129C24.797 21.58 25.6448 21.2288 26.27 20.6037C26.8951 19.9785 27.2463 19.1307 27.2463 18.2466V3.75332C27.2463 2.86926 26.8951 2.02141 26.27 1.39629C25.6448 0.771172 24.797 0.419983 23.9129 0.419983ZM4.08626 1.75332H23.9129C24.4175 1.75218 24.9036 1.94309 25.2726 2.28729C25.6416 2.63149 25.8657 3.1032 25.8996 3.60665C22.6063 5.36665 19.2996 7.11332 15.9929 8.87331C15.5463 9.15493 15.0729 9.39165 14.5796 9.57998C14.1928 9.65658 13.7941 9.64981 13.4102 9.56014C13.0262 9.47047 12.6658 9.29996 12.3529 9.05998C10.4596 8.05998 8.56626 7.04665 6.68626 6.04665C5.16626 5.24665 3.6196 4.43332 2.0996 3.61998C2.1302 3.11416 2.35295 2.63915 2.72226 2.29215C3.09156 1.94515 3.57951 1.75239 4.08626 1.75332ZM25.9129 18.2466C25.9129 18.7771 25.7022 19.2858 25.3271 19.6609C24.9521 20.0359 24.4434 20.2466 23.9129 20.2466H4.08626C3.55583 20.2466 3.04712 20.0359 2.67205 19.6609C2.29698 19.2858 2.08626 18.7771 2.08626 18.2466V5.13332C5.23293 6.78665 8.36626 8.46665 11.5129 10.1333C12.075 10.4783 12.6802 10.7473 13.3129 10.9333C14.2388 11.0841 15.1878 10.8896 15.9796 10.3866C17.9129 9.37332 19.8329 8.34665 21.7663 7.33332C23.1529 6.58665 24.5263 5.86665 25.9129 5.13332V18.2466Z" fill="black"/>
</svg>
