<svg width="24" height="28" viewBox="0 0 24 28" fill="none" xmlns="http://www.w3.org/2000/svg">
<path d="M12.0003 0.571411C14.9555 0.571411 17.7898 1.74539 19.8795 3.83508C21.9692 5.92477 23.1431 8.759 23.1431 11.7143C23.1431 16.4228 19.8346 21.5543 13.3031 27.1634C12.94 27.4754 12.4769 27.6467 11.9981 27.6463C11.5194 27.6459 11.0566 27.4737 10.694 27.1611L10.262 26.7863C4.01971 21.3234 0.857422 16.3177 0.857422 11.7143C0.857422 8.759 2.0314 5.92477 4.12109 3.83508C6.21078 1.74539 9.04501 0.571411 12.0003 0.571411ZM12.0003 2.2857C9.49967 2.2857 7.10147 3.27906 5.33327 5.04726C3.56507 6.81546 2.57171 9.21366 2.57171 11.7143C2.57171 15.7166 5.48371 20.328 11.3877 25.4937L11.814 25.8628C11.8658 25.9074 11.9319 25.9319 12.0003 25.9319C12.0686 25.9319 12.1347 25.9074 12.1866 25.8628C18.3763 20.5463 21.4289 15.8114 21.4289 11.7143C21.4289 10.4761 21.185 9.25004 20.7111 8.10611C20.2373 6.96218 19.5428 5.92278 18.6673 5.04726C17.7918 4.17174 16.7524 3.47723 15.6084 3.0034C14.4645 2.52957 13.2385 2.2857 12.0003 2.2857ZM12.0003 7.42855C13.1369 7.42855 14.227 7.88008 15.0307 8.68381C15.8345 9.48754 16.286 10.5776 16.286 11.7143C16.286 12.8509 15.8345 13.941 15.0307 14.7447C14.227 15.5485 13.1369 16 12.0003 16C10.8636 16 9.77355 15.5485 8.96982 14.7447C8.16609 13.941 7.71457 12.8509 7.71457 11.7143C7.71457 10.5776 8.16609 9.48754 8.96982 8.68381C9.77355 7.88008 10.8636 7.42855 12.0003 7.42855ZM12.0003 9.14284C11.3183 9.14284 10.6642 9.41376 10.182 9.89599C9.69977 10.3782 9.42885 11.0323 9.42885 11.7143C9.42885 12.3963 9.69977 13.0503 10.182 13.5325C10.6642 14.0148 11.3183 14.2857 12.0003 14.2857C12.6823 14.2857 13.3363 14.0148 13.8186 13.5325C14.3008 13.0503 14.5717 12.3963 14.5717 11.7143C14.5717 11.0323 14.3008 10.3782 13.8186 9.89599C13.3363 9.41376 12.6823 9.14284 12.0003 9.14284Z" fill="black"/>
</svg>
