<svg width="91" height="17" viewBox="0 0 91 17" fill="none" xmlns="http://www.w3.org/2000/svg">
<path d="M9.79102 7.65039V9.75977H2.31055V7.65039H9.79102ZM3.04297 1.78125V16H0.357422V1.78125H3.04297ZM11.7832 1.78125V16H9.09766V1.78125H11.7832ZM19.0684 16.1953C18.2676 16.1953 17.5482 16.0651 16.9102 15.8047C16.2721 15.5443 15.7285 15.1829 15.2793 14.7207C14.8366 14.252 14.4948 13.7083 14.2539 13.0898C14.0195 12.4648 13.9023 11.7943 13.9023 11.0781V10.6875C13.9023 9.8737 14.0195 9.13477 14.2539 8.4707C14.4883 7.80013 14.8203 7.22396 15.25 6.74219C15.6797 6.26042 16.194 5.88932 16.793 5.62891C17.3919 5.36849 18.0527 5.23828 18.7754 5.23828C19.5241 5.23828 20.1849 5.36523 20.7578 5.61914C21.3307 5.86654 21.8092 6.2181 22.1934 6.67383C22.5775 7.12956 22.8672 7.67643 23.0625 8.31445C23.2578 8.94596 23.3555 9.64583 23.3555 10.4141V11.498H15.0742V9.7207H20.8164V9.52539C20.8034 9.11523 20.7253 8.74089 20.582 8.40234C20.4388 8.05729 20.2174 7.78385 19.918 7.58203C19.6185 7.3737 19.2311 7.26953 18.7559 7.26953C18.3717 7.26953 18.0365 7.35417 17.75 7.52344C17.4701 7.6862 17.2357 7.92057 17.0469 8.22656C16.8646 8.52604 16.7279 8.88411 16.6367 9.30078C16.5456 9.71745 16.5 10.1797 16.5 10.6875V11.0781C16.5 11.5208 16.5586 11.931 16.6758 12.3086C16.7995 12.6862 16.9785 13.015 17.2129 13.2949C17.4538 13.5684 17.7402 13.7832 18.0723 13.9395C18.4108 14.0892 18.7949 14.1641 19.2246 14.1641C19.765 14.1641 20.2533 14.0599 20.6895 13.8516C21.1322 13.6367 21.5163 13.321 21.8418 12.9043L23.1406 14.252C22.9193 14.5775 22.6198 14.89 22.2422 15.1895C21.8711 15.4889 21.4219 15.7331 20.8945 15.9219C20.3672 16.1042 19.7585 16.1953 19.0684 16.1953ZM28.4629 16H25.8652V4.45703C25.8652 3.66276 26.0182 2.99544 26.3242 2.45508C26.6302 1.9082 27.0664 1.49479 27.6328 1.21484C28.1992 0.934896 28.8665 0.794922 29.6348 0.794922C29.8887 0.794922 30.1296 0.811198 30.3574 0.84375C30.5918 0.876302 30.8229 0.921875 31.0508 0.980469L31.002 2.94336C30.8783 2.91081 30.7415 2.88802 30.5918 2.875C30.4486 2.86198 30.2891 2.85547 30.1133 2.85547C29.7617 2.85547 29.4622 2.91732 29.2148 3.04102C28.9674 3.16471 28.7786 3.34701 28.6484 3.58789C28.5247 3.82227 28.4629 4.11198 28.4629 4.45703V16ZM30.6016 5.43359V7.28906H24.2734V5.43359H30.6016ZM38.0137 13.7539V8.88086C38.0137 8.52279 37.9518 8.21354 37.8281 7.95312C37.7044 7.69271 37.5156 7.49089 37.2617 7.34766C37.0078 7.20443 36.6855 7.13281 36.2949 7.13281C35.9499 7.13281 35.6471 7.19141 35.3867 7.30859C35.1328 7.42578 34.9375 7.5918 34.8008 7.80664C34.6641 8.01497 34.5957 8.25586 34.5957 8.5293H32.0078C32.0078 8.0931 32.112 7.67969 32.3203 7.28906C32.5286 6.89193 32.8249 6.54036 33.209 6.23438C33.5996 5.92188 34.0651 5.67773 34.6055 5.50195C35.1523 5.32617 35.7643 5.23828 36.4414 5.23828C37.2422 5.23828 37.9551 5.375 38.5801 5.64844C39.2116 5.91536 39.7064 6.31901 40.0645 6.85938C40.429 7.39974 40.6113 8.08008 40.6113 8.90039V13.5098C40.6113 14.0371 40.6439 14.4896 40.709 14.8672C40.7806 15.2383 40.8848 15.5605 41.0215 15.834V16H38.3945C38.2708 15.7331 38.1764 15.3945 38.1113 14.9844C38.0462 14.5677 38.0137 14.1576 38.0137 13.7539ZM38.375 9.56445L38.3945 11.0977H36.7637C36.36 11.0977 36.0052 11.14 35.6992 11.2246C35.3932 11.3027 35.1426 11.4199 34.9473 11.5762C34.752 11.7259 34.6055 11.9082 34.5078 12.123C34.4102 12.3314 34.3613 12.569 34.3613 12.8359C34.3613 13.0964 34.4199 13.3307 34.5371 13.5391C34.6608 13.7474 34.8366 13.9134 35.0645 14.0371C35.2988 14.1543 35.5723 14.2129 35.8848 14.2129C36.3405 14.2129 36.7376 14.1217 37.0762 13.9395C37.4147 13.7507 37.6784 13.5228 37.8672 13.2559C38.056 12.9889 38.1569 12.735 38.1699 12.4941L38.9121 13.6074C38.821 13.8743 38.6842 14.1576 38.502 14.457C38.3197 14.7565 38.0853 15.0365 37.7988 15.2969C37.5124 15.5573 37.1673 15.7721 36.7637 15.9414C36.36 16.1107 35.8913 16.1953 35.3574 16.1953C34.6738 16.1953 34.0618 16.0586 33.5215 15.7852C32.9811 15.5117 32.5547 15.1374 32.2422 14.6621C31.9297 14.1868 31.7734 13.6465 31.7734 13.041C31.7734 12.4811 31.8776 11.9863 32.0859 11.5566C32.2943 11.127 32.6035 10.7656 33.0137 10.4727C33.4238 10.1732 33.9316 9.94857 34.5371 9.79883C35.1491 9.64258 35.849 9.56445 36.6367 9.56445H38.375ZM48.7461 13.1094C48.7461 12.888 48.6875 12.6895 48.5703 12.5137C48.4531 12.3379 48.2318 12.1784 47.9062 12.0352C47.5872 11.8854 47.1185 11.7454 46.5 11.6152C45.9531 11.498 45.4486 11.3516 44.9863 11.1758C44.5241 11 44.127 10.7884 43.7949 10.541C43.4629 10.2871 43.2025 9.99089 43.0137 9.65234C42.8314 9.30729 42.7402 8.91016 42.7402 8.46094C42.7402 8.02474 42.8346 7.61458 43.0234 7.23047C43.2122 6.83984 43.4857 6.49805 43.8438 6.20508C44.2018 5.9056 44.638 5.67122 45.1523 5.50195C45.6667 5.32617 46.2461 5.23828 46.8906 5.23828C47.7891 5.23828 48.5605 5.38477 49.2051 5.67773C49.8561 5.9707 50.3542 6.37435 50.6992 6.88867C51.0443 7.39648 51.2168 7.9694 51.2168 8.60742H48.6387C48.6387 8.32747 48.5736 8.07357 48.4434 7.8457C48.3197 7.61784 48.1276 7.43555 47.8672 7.29883C47.6068 7.1556 47.278 7.08398 46.8809 7.08398C46.5228 7.08398 46.2201 7.14258 45.9727 7.25977C45.7318 7.37695 45.5495 7.52995 45.4258 7.71875C45.3021 7.90755 45.2402 8.11589 45.2402 8.34375C45.2402 8.51302 45.2728 8.66602 45.3379 8.80273C45.4095 8.93294 45.5234 9.05339 45.6797 9.16406C45.8359 9.27474 46.0475 9.37565 46.3145 9.4668C46.5879 9.55794 46.9232 9.64583 47.3203 9.73047C48.1081 9.88672 48.7949 10.0951 49.3809 10.3555C49.9733 10.6094 50.4355 10.9479 50.7676 11.3711C51.0996 11.7943 51.2656 12.3346 51.2656 12.9922C51.2656 13.4609 51.1647 13.8906 50.9629 14.2812C50.7611 14.6654 50.4681 15.0007 50.084 15.2871C49.6999 15.5736 49.2409 15.7982 48.707 15.9609C48.1732 16.1172 47.571 16.1953 46.9004 16.1953C45.9303 16.1953 45.11 16.0228 44.4395 15.6777C43.7689 15.3262 43.2611 14.8835 42.916 14.3496C42.571 13.8092 42.3984 13.2493 42.3984 12.6699H44.8691C44.8887 13.0801 44.9993 13.4089 45.2012 13.6562C45.403 13.9036 45.6569 14.0827 45.9629 14.1934C46.2754 14.2975 46.6042 14.3496 46.9492 14.3496C47.3398 14.3496 47.6686 14.2975 47.9355 14.1934C48.2025 14.0827 48.4043 13.9362 48.541 13.7539C48.6777 13.5651 48.7461 13.3503 48.7461 13.1094ZM58.2285 5.43359V7.28906H52.1738V5.43359H58.2285ZM53.7949 2.83594H56.3828V12.9531C56.3828 13.2656 56.4251 13.5065 56.5098 13.6758C56.5944 13.8451 56.7214 13.959 56.8906 14.0176C57.0599 14.0762 57.2617 14.1055 57.4961 14.1055C57.6654 14.1055 57.8216 14.0957 57.9648 14.0762C58.1081 14.0566 58.2285 14.0371 58.3262 14.0176L58.3359 15.9512C58.1211 16.0228 57.877 16.0814 57.6035 16.127C57.3366 16.1725 57.0339 16.1953 56.6953 16.1953C56.1159 16.1953 55.6081 16.0977 55.1719 15.9023C54.7357 15.7005 54.3971 15.3783 54.1562 14.9355C53.9154 14.4863 53.7949 13.8939 53.7949 13.1582V2.83594ZM64.6934 16.1953C63.8926 16.1953 63.1732 16.0651 62.5352 15.8047C61.8971 15.5443 61.3535 15.1829 60.9043 14.7207C60.4616 14.252 60.1198 13.7083 59.8789 13.0898C59.6445 12.4648 59.5273 11.7943 59.5273 11.0781V10.6875C59.5273 9.8737 59.6445 9.13477 59.8789 8.4707C60.1133 7.80013 60.4453 7.22396 60.875 6.74219C61.3047 6.26042 61.819 5.88932 62.418 5.62891C63.0169 5.36849 63.6777 5.23828 64.4004 5.23828C65.1491 5.23828 65.8099 5.36523 66.3828 5.61914C66.9557 5.86654 67.4342 6.2181 67.8184 6.67383C68.2025 7.12956 68.4922 7.67643 68.6875 8.31445C68.8828 8.94596 68.9805 9.64583 68.9805 10.4141V11.498H60.6992V9.7207H66.4414V9.52539C66.4284 9.11523 66.3503 8.74089 66.207 8.40234C66.0638 8.05729 65.8424 7.78385 65.543 7.58203C65.2435 7.3737 64.8561 7.26953 64.3809 7.26953C63.9967 7.26953 63.6615 7.35417 63.375 7.52344C63.0951 7.6862 62.8607 7.92057 62.6719 8.22656C62.4896 8.52604 62.3529 8.88411 62.2617 9.30078C62.1706 9.71745 62.125 10.1797 62.125 10.6875V11.0781C62.125 11.5208 62.1836 11.931 62.3008 12.3086C62.4245 12.6862 62.6035 13.015 62.8379 13.2949C63.0788 13.5684 63.3652 13.7832 63.6973 13.9395C64.0358 14.0892 64.4199 14.1641 64.8496 14.1641C65.39 14.1641 65.8783 14.0599 66.3145 13.8516C66.7572 13.6367 67.1413 13.321 67.4668 12.9043L68.7656 14.252C68.5443 14.5775 68.2448 14.89 67.8672 15.1895C67.4961 15.4889 67.0469 15.7331 66.5195 15.9219C65.9922 16.1042 65.3835 16.1953 64.6934 16.1953ZM75.0449 14.1641C75.4095 14.1641 75.735 14.0924 76.0215 13.9492C76.3079 13.806 76.5358 13.6042 76.7051 13.3438C76.8809 13.0833 76.9753 12.7806 76.9883 12.4355H79.4199C79.4069 13.1517 79.2051 13.793 78.8145 14.3594C78.4238 14.9258 77.903 15.375 77.252 15.707C76.6074 16.0326 75.8848 16.1953 75.084 16.1953C74.2702 16.1953 73.5605 16.0586 72.9551 15.7852C72.3496 15.5117 71.8451 15.1309 71.4414 14.6426C71.0443 14.1543 70.7448 13.5879 70.543 12.9434C70.3477 12.2988 70.25 11.6087 70.25 10.873V10.5605C70.25 9.82487 70.3477 9.13477 70.543 8.49023C70.7448 7.8457 71.0443 7.2793 71.4414 6.79102C71.8451 6.30273 72.3496 5.92188 72.9551 5.64844C73.5605 5.375 74.2669 5.23828 75.0742 5.23828C75.9271 5.23828 76.6758 5.4043 77.3203 5.73633C77.9714 6.06836 78.4792 6.53711 78.8438 7.14258C79.2148 7.74805 79.4069 8.46094 79.4199 9.28125H76.9883C76.9753 8.90365 76.8906 8.5651 76.7344 8.26562C76.5781 7.96615 76.3568 7.72526 76.0703 7.54297C75.7839 7.36068 75.4355 7.26953 75.0254 7.26953C74.5892 7.26953 74.2246 7.36068 73.9316 7.54297C73.6452 7.72526 73.4206 7.97591 73.2578 8.29492C73.1016 8.60742 72.9909 8.95898 72.9258 9.34961C72.8672 9.73372 72.8379 10.1374 72.8379 10.5605V10.873C72.8379 11.3027 72.8672 11.7129 72.9258 12.1035C72.9909 12.4941 73.1016 12.8457 73.2578 13.1582C73.4206 13.4642 73.6452 13.7083 73.9316 13.8906C74.2246 14.0729 74.5957 14.1641 75.0449 14.1641ZM83.668 1V16H81.0801V1H83.668ZM83.2578 10.3359H82.4961C82.4961 9.60026 82.5938 8.92318 82.7891 8.30469C82.9844 7.6862 83.2611 7.14909 83.6191 6.69336C83.9772 6.23112 84.4036 5.87305 84.8984 5.61914C85.3997 5.36523 85.9531 5.23828 86.5586 5.23828C87.0794 5.23828 87.5514 5.31315 87.9746 5.46289C88.4043 5.60612 88.7721 5.83724 89.0781 6.15625C89.3841 6.47526 89.6185 6.89193 89.7812 7.40625C89.9505 7.91406 90.0352 8.53255 90.0352 9.26172V16H87.4375V9.24219C87.4375 8.75391 87.3659 8.36979 87.2227 8.08984C87.0794 7.80339 86.8743 7.59831 86.6074 7.47461C86.347 7.35091 86.0247 7.28906 85.6406 7.28906C85.224 7.28906 84.8659 7.37044 84.5664 7.5332C84.2669 7.68945 84.0195 7.90755 83.8242 8.1875C83.6354 8.46745 83.4922 8.78971 83.3945 9.1543C83.3034 9.51888 83.2578 9.91276 83.2578 10.3359Z" fill="white"/>
</svg>
