<svg width="32" height="32" viewBox="0 0 32 32" fill="none" xmlns="http://www.w3.org/2000/svg">
<g clip-path="url(#clip0_54_290)">
<path d="M30.8114 17.1794C30.5858 20.0149 29.551 22.726 27.8299 24.9906C26.1088 27.2552 23.7738 28.9782 21.1023 29.9548C18.4308 30.9314 15.5351 31.1207 12.7593 30.5C9.98341 29.8793 7.44405 28.4749 5.44288 26.4535C3.44172 24.4321 2.06286 21.8788 1.47014 19.0968C0.877414 16.3149 1.09573 13.4212 2.09916 10.7597C3.10258 8.09815 4.84894 5.78059 7.13074 4.08235C9.41254 2.38411 12.1339 1.37658 14.9714 1.17944" stroke="black" stroke-linecap="round" stroke-linejoin="round"/>
<path d="M22.3772 18.4914C21.9644 19.5538 21.2934 20.4965 20.4247 21.2344C19.556 21.9722 18.5171 22.4819 17.4019 22.7174C16.2867 22.9528 15.1305 22.9065 14.0377 22.5828C12.9448 22.259 11.95 21.668 11.143 20.8631C10.336 20.0582 9.74244 19.0648 9.41587 17.9729C9.08929 16.8809 9.04006 15.7247 9.27261 14.609C9.50517 13.4932 10.0122 12.453 10.7478 11.5824C11.4834 10.7118 12.4244 10.0383 13.4858 9.62282M16 16L21.7143 10.2857M21.7143 10.2857L26.2858 11.4285L30.8572 6.85711L26.2858 5.71425L25.1429 1.14282L20.5715 5.71425L21.7143 10.2857Z" stroke="black" stroke-linecap="round" stroke-linejoin="round"/>
</g>
<defs>
<clipPath id="clip0_54_290">
<rect width="32" height="32" fill="white"/>
</clipPath>
</defs>
</svg>
