<svg width="163" height="27" viewBox="0 0 163 27" fill="none" xmlns="http://www.w3.org/2000/svg">
<mask id="mask0_54_112" style="mask-type:luminance" maskUnits="userSpaceOnUse" x="0" y="0" width="163" height="27">
<path d="M163 0.5H0V26.5H163V0.5Z" fill="white"/>
</mask>
<g mask="url(#mask0_54_112)">
<path d="M0.877014 25.589V0.822754H5.53121L17.4944 18.2653V0.822754H22.1487V25.589H17.4944L5.53121 8.18176V25.589H0.877014Z" fill="black"/>
<path d="M33.9194 26.0135C32.1011 26.0135 30.4892 25.6362 29.0833 24.8812C27.6773 24.1265 26.5743 23.065 25.7742 21.6971C24.9741 20.3291 24.5742 18.7486 24.5742 16.9561C24.5742 15.1398 24.962 13.5242 25.738 12.1089C26.5377 10.6937 27.6287 9.5969 29.0105 8.8186C30.4164 8.0166 32.0649 7.6156 33.9556 7.6156C35.7256 7.6156 37.2888 7.993 38.6465 8.7478C40.0041 9.5026 41.0585 10.5404 41.81 11.8613C42.5859 13.1585 42.9737 14.6091 42.9737 16.213C42.9737 16.4725 42.9616 16.7438 42.9371 17.0268C42.9371 17.3098 42.9251 17.6045 42.9009 17.9114H29.1923C29.2892 19.2793 29.774 20.3526 30.6469 21.1311C31.5436 21.9092 32.6225 22.2986 33.8832 22.2986C34.8285 22.2986 35.6162 22.0979 36.2465 21.6971C36.901 21.2724 37.3858 20.7299 37.7011 20.0696H42.4282C42.0887 21.1781 41.5191 22.1922 40.719 23.1124C39.9434 24.0087 38.9739 24.716 37.8102 25.235C36.6709 25.754 35.374 26.0135 33.9194 26.0135ZM33.9556 11.2952C32.8164 11.2952 31.8103 11.6136 30.9377 12.2505C30.0648 12.8637 29.5073 13.8072 29.2651 15.0809H38.2466C38.1738 13.9251 37.7374 13.0052 36.9376 12.3212C36.1375 11.6372 35.1435 11.2952 33.9556 11.2952Z" fill="black"/>
<path d="M42.1182 25.5877L48.6631 16.8134L42.1182 8.03906H47.0999L51.6814 14.266L56.2266 8.03906H61.2446L54.663 16.8134L61.2446 25.5877H56.2266L51.6814 19.3608L47.0999 25.5877H42.1182Z" fill="black"/>
<path d="M70.4282 25.5877C68.5371 25.5877 67.0222 25.1396 65.8825 24.2432C64.7433 23.3469 64.1737 21.755 64.1737 19.4669V11.8248H61.083V8.0391H64.1737L64.7192 3.3335H68.828V8.0391H73.701V11.8248H68.828V19.5025C68.828 20.3515 69.0098 20.9413 69.3734 21.2713C69.7612 21.5781 70.4157 21.7312 71.3369 21.7312H73.592V25.5877H70.4282Z" fill="black"/>
<path d="M75.878 25.5888V8.0402H79.987L80.387 10.4107C80.969 9.5615 81.733 8.8893 82.678 8.394C83.647 7.8751 84.763 7.6156 86.023 7.6156C88.811 7.6156 90.787 8.6653 91.95 10.7645C92.605 9.7974 93.477 9.0308 94.568 8.4648C95.683 7.8987 96.895 7.6156 98.204 7.6156C100.556 7.6156 102.362 8.2997 103.623 9.6677C104.883 11.0357 105.513 13.0406 105.513 15.6823V25.5888H100.859V16.1069C100.859 14.5974 100.556 13.4416 99.95 12.6397C99.368 11.8377 98.459 11.4367 97.223 11.4367C95.962 11.4367 94.944 11.8849 94.168 12.7811C93.417 13.6775 93.041 14.9276 93.041 16.5315V25.5888H88.387V16.1069C88.387 14.5974 88.084 13.4416 87.478 12.6397C86.872 11.8377 85.938 11.4367 84.678 11.4367C83.441 11.4367 82.435 11.8849 81.66 12.7811C80.908 13.6775 80.533 14.9276 80.533 16.5315V25.5888H75.878Z" fill="black"/>
<path d="M116.769 26.0135C115.024 26.0135 113.448 25.6241 112.042 24.8459C110.66 24.0674 109.557 22.9942 108.733 21.6262C107.933 20.2347 107.533 18.6308 107.533 16.8145C107.533 14.9983 107.945 13.4062 108.769 12.0382C109.594 10.6466 110.697 9.5615 112.078 8.7832C113.484 8.0048 115.06 7.6156 116.806 7.6156C118.527 7.6156 120.078 8.0048 121.46 8.7832C122.866 9.5615 123.969 10.6466 124.769 12.0382C125.593 13.4062 126.005 14.9983 126.005 16.8145C126.005 18.6308 125.593 20.2347 124.769 21.6262C123.969 22.9942 122.866 24.0674 121.46 24.8459C120.054 25.6241 118.49 26.0135 116.769 26.0135ZM116.769 22.0861C117.981 22.0861 119.036 21.6497 119.933 20.7772C120.83 19.8809 121.278 18.5599 121.278 16.8145C121.278 15.0691 120.83 13.76 119.933 12.8873C119.036 11.991 117.993 11.5428 116.806 11.5428C115.569 11.5428 114.503 11.991 113.606 12.8873C112.733 13.76 112.297 15.0691 112.297 16.8145C112.297 18.5599 112.733 19.8809 113.606 20.7772C114.503 21.6497 115.557 22.0861 116.769 22.0861Z" fill="black"/>
<path d="M132.333 25.5877L125.715 8.03906H130.588L135.169 21.3069L139.751 8.03906H144.623L137.969 25.5877H132.333Z" fill="black"/>
<path d="M153.618 26.0135C151.8 26.0135 150.187 25.6362 148.782 24.8812C147.376 24.1265 146.273 23.065 145.472 21.6971C144.673 20.3291 144.272 18.7486 144.272 16.9561C144.272 15.1398 144.661 13.5242 145.436 12.1089C146.236 10.6937 147.327 9.5969 148.709 8.8186C150.115 8.0166 151.763 7.6156 153.654 7.6156C155.424 7.6156 156.987 7.993 158.345 8.7478C159.702 9.5026 160.757 10.5404 161.508 11.8613C162.284 13.1585 162.672 14.6091 162.672 16.213C162.672 16.4725 162.66 16.7438 162.636 17.0268C162.636 17.3098 162.623 17.6045 162.599 17.9114H148.891C148.987 19.2793 149.473 20.3526 150.345 21.1311C151.242 21.9092 152.321 22.2986 153.581 22.2986C154.527 22.2986 155.315 22.0979 155.945 21.6971C156.599 21.2724 157.084 20.7299 157.399 20.0696H162.126C161.787 21.1781 161.217 22.1922 160.418 23.1124C159.642 24.0087 158.672 24.716 157.508 25.235C156.369 25.754 155.072 26.0135 153.618 26.0135ZM153.654 11.2952C152.515 11.2952 151.509 11.6136 150.636 12.2505C149.763 12.8637 149.206 13.8072 148.963 15.0809H157.945C157.872 13.9251 157.436 13.0052 156.636 12.3212C155.836 11.6372 154.842 11.2952 153.654 11.2952Z" fill="black"/>
</g>
</svg>
