<svg width="175" height="28" viewBox="0 0 175 28" fill="none" xmlns="http://www.w3.org/2000/svg">
<mask id="mask0_54_92" style="mask-type:luminance" maskUnits="userSpaceOnUse" x="0" y="0" width="175" height="28">
<path d="M175 0.5H0V27.5H175V0.5Z" fill="white"/>
</mask>
<g mask="url(#mask0_54_92)">
<path d="M0.0176086 17.395L7.38001 14.1898L11.6177 16.5937L12.4738 24.4798L7.25161 24.4378L8.02211 18.9554L7.12321 18.4491L2.71431 21.823L0.0176086 17.395Z" fill="black"/>
<path d="M11.9316 16.3997L18.5328 21.2304L21.1384 16.5738L15.84 14.4414V13.3969L21.1384 11.2209L18.5328 6.60791L11.9316 11.4385V16.3997Z" fill="black"/>
<path d="M11.6177 10.7035L12.4738 2.81738L7.25161 2.90168L8.02211 8.38408L7.12321 8.89008L2.67151 5.51638L0.0176086 9.90218L7.38001 13.1073L11.6177 10.7035Z" fill="black"/>
<path d="M53.6106 11.937V26.0358H58.8563V8.06836H51.2168V11.937H53.6106Z" fill="black"/>
<path d="M53.4462 5.54405C53.9271 6.04675 54.6593 6.29805 55.6428 6.29805C56.6268 6.29805 57.3477 6.04675 57.8064 5.54405C58.2878 5.01935 58.5278 4.36355 58.5278 3.57685C58.5278 2.76805 58.2878 2.11225 57.8064 1.60965C57.3477 1.08505 56.6268 0.822754 55.6428 0.822754C54.6593 0.822754 53.9271 1.08505 53.4462 1.60965C52.9874 2.11225 52.7578 2.76805 52.7578 3.57685C52.7578 4.36355 52.9874 5.01935 53.4462 5.54405Z" fill="black"/>
<path d="M35.3491 25.6422C36.8352 26.3197 38.6603 26.6588 40.8239 26.6588C42.8569 26.6588 44.6051 26.342 46.0701 25.7078C47.5345 25.0741 48.6599 24.1886 49.4468 23.0524C50.2559 21.8935 50.66 20.5493 50.66 19.0193C50.66 17.533 50.2781 16.2762 49.5129 15.2487C48.7693 14.1996 47.7317 13.3799 46.3978 12.79C45.0644 12.1778 43.5236 11.7952 41.7749 11.6424L39.9389 11.4785C38.846 11.3908 38.0591 11.096 37.5782 10.5931C37.0973 10.0904 36.8568 9.50018 36.8568 8.82278C36.8568 8.29788 36.9884 7.81718 37.25 7.38008C37.5127 6.92098 37.9059 6.56038 38.4306 6.29798C38.9771 6.03578 39.6438 5.90458 40.4307 5.90458C41.2609 5.90458 41.9498 6.05748 42.4962 6.36368C42.6165 6.42838 42.7307 6.49758 42.838 6.57088L42.864 6.58908C42.9041 6.61688 42.9436 6.64558 42.982 6.67468C43.314 6.92838 43.5783 7.22908 43.7749 7.57668C44.0587 8.05768 44.2017 8.59308 44.2017 9.18328H49.4468C49.4468 7.60948 49.0861 6.24328 48.3653 5.08498C47.6439 3.90458 46.6057 2.99758 45.2507 2.36348C43.9168 1.70768 42.3105 1.37988 40.4307 1.37988C38.6381 1.37988 37.0865 1.68608 35.7748 2.29798C34.4636 2.88828 33.4362 3.74068 32.6932 4.85528C31.9713 5.97008 31.6106 7.29268 31.6106 8.82278C31.6106 10.9428 32.3217 12.6477 33.7422 13.9375C35.1628 15.2271 37.0648 15.9702 39.4472 16.1669L41.2506 16.3308C42.7145 16.462 43.7749 16.7572 44.4308 17.216C45.0861 17.6531 45.4143 18.2542 45.4143 19.0193C45.4143 19.3709 45.3568 19.7006 45.2415 20.0087C45.1559 20.2373 45.0389 20.4539 44.89 20.6587C44.5396 21.1179 44.0262 21.4781 43.3487 21.7407C42.6712 22.0029 41.8296 22.1339 40.8239 22.1339C39.7093 22.1339 38.8022 21.9812 38.103 21.6752C37.4033 21.347 36.879 20.9208 36.5286 20.3965C36.201 19.8717 36.0374 19.3036 36.0374 18.6914H30.8242C30.8242 20.2433 31.2066 21.6205 31.9713 22.8228C32.7365 24.0029 33.8625 24.9431 35.3491 25.6422Z" fill="black"/>
<path d="M70.5612 26.2646C68.747 26.2646 67.2825 26.0464 66.168 25.6088C65.0529 25.1501 64.2335 24.3962 63.7087 23.3472C63.2061 22.2759 62.9548 20.8332 62.9548 19.0188V11.9041H60.2334V8.0681H62.9548V3.2157H67.8398V8.0681H73.0861V11.9041H67.8398V19.2157C67.8398 20.0682 68.0586 20.7238 68.4957 21.1825C68.9544 21.6201 69.5994 21.8383 70.4302 21.8383H73.0861V26.2646H70.5612Z" fill="black"/>
<path fill-rule="evenodd" clip-rule="evenodd" d="M79.402 25.8721C80.582 26.3969 81.937 26.659 83.467 26.659C84.975 26.659 86.309 26.3969 87.468 25.8721C88.626 25.3473 89.588 24.6151 90.352 23.6755C91.118 22.7353 91.632 21.6646 91.893 20.4623H87.074C86.856 21.0088 86.44 21.4675 85.828 21.839C85.216 22.2111 84.429 22.3968 83.467 22.3968C82.872 22.3968 82.339 22.3264 81.87 22.1851C81.513 22.0779 81.193 21.93 80.91 21.741C80.254 21.3039 79.773 20.6914 79.467 19.905C79.382 19.6809 79.31 19.4464 79.249 19.2022C79.186 18.9549 79.136 18.6975 79.098 18.4295H92.221V16.659C92.221 15.0196 91.872 13.5114 91.172 12.1345C90.473 10.7353 89.456 9.6097 88.123 8.7573C86.812 7.883 85.194 7.4458 83.27 7.4458C81.806 7.4458 80.494 7.7082 79.336 8.2328C78.2 8.7353 77.249 9.4239 76.4838 10.2982C75.7191 11.1725 75.1288 12.1672 74.7128 13.282C74.3196 14.3747 74.123 15.5222 74.123 16.7244V17.3802C74.123 18.5388 74.3196 19.6753 74.7128 20.79C75.1288 21.8829 75.7191 22.8772 76.4838 23.7735C77.2707 24.6482 78.2428 25.3473 79.402 25.8721ZM79.188 15.1875C79.203 15.1181 79.218 15.0497 79.235 14.9824C79.281 14.797 79.333 14.6194 79.393 14.4497C79.426 14.353 79.462 14.2588 79.5 14.1672C79.828 13.3583 80.309 12.7464 80.943 12.3311C81.18 12.1759 81.437 12.0497 81.712 11.9526C82.176 11.7897 82.696 11.7082 83.27 11.7082C84.167 11.7082 84.91 11.9159 85.5 12.3311C86.112 12.7245 86.571 13.3037 86.877 14.0687C86.902 14.1305 86.925 14.1933 86.948 14.2569C86.984 14.3583 87.018 14.4623 87.049 14.569C87.095 14.7276 87.136 14.8918 87.172 15.0616C87.198 15.1867 87.22 15.3147 87.24 15.4459H79.138C79.153 15.3583 79.17 15.2722 79.188 15.1875Z" fill="black"/>
<path d="M94.386 26.0358V8.06841H98.55V12.5936C98.606 12.3246 98.671 12.0665 98.743 11.8189C98.805 11.6103 98.871 11.4092 98.943 11.2159C99.402 9.99181 100.091 9.07391 101.009 8.46171C101.927 7.82791 103.052 7.51111 104.386 7.51111H104.615C105.971 7.51111 107.096 7.82791 107.992 8.46171C108.91 9.07391 109.599 9.99181 110.058 11.2159L110.094 11.3083L110.125 11.3928C110.146 11.3331 110.167 11.2743 110.189 11.2159C110.67 9.99181 111.37 9.07391 112.288 8.46171C113.205 7.82791 114.331 7.51111 115.665 7.51111H115.894C117.249 7.51111 118.386 7.82791 119.304 8.46171C120.244 9.07391 120.954 9.99181 121.435 11.2159C121.916 12.44 122.157 13.9701 122.157 15.8061V26.0358H116.91V15.511C116.91 14.5273 116.648 13.7296 116.123 13.1177C115.621 12.5055 114.9 12.1995 113.96 12.1995C113.02 12.1995 112.277 12.5166 111.73 13.1504C111.184 13.7623 110.91 14.582 110.91 15.6095V26.0358H105.632V15.511C105.632 14.5273 105.369 13.7296 104.845 13.1177C104.342 12.5055 103.632 12.1995 102.714 12.1995C101.752 12.1995 100.998 12.5166 100.451 13.1504C99.905 13.7623 99.631 14.582 99.631 15.6095V26.0358H94.386Z" fill="black"/>
<path fill-rule="evenodd" clip-rule="evenodd" d="M136.17 22.5736V26.0359H140.333V15.0193C140.333 13.358 140.006 12.0029 139.35 10.9536C138.694 9.88262 137.733 9.08482 136.465 8.56032C135.219 8.03572 133.678 7.77332 131.842 7.77332C131.444 7.77332 131.029 7.77762 130.595 7.78632C130.34 7.79152 130.077 7.79812 129.809 7.80602C129.088 7.82802 128.388 7.86072 127.711 7.90452L127.193 7.93942C126.927 7.95782 126.678 7.97602 126.443 7.99462C126.266 8.00832 126.099 8.02202 125.94 8.03572V12.462C126.618 12.4182 127.372 12.3744 128.203 12.3308C128.435 12.3187 128.665 12.3073 128.894 12.2967C129.224 12.2815 129.55 12.2682 129.872 12.2567C130.126 12.2474 130.379 12.2392 130.629 12.2323C131.415 12.2104 132.049 12.1996 132.53 12.1996C133.492 12.1996 134.191 12.429 134.629 12.8881C135.066 13.3472 135.284 14.0356 135.284 14.9538V15.0193H132.039C130.443 15.0193 129.033 15.227 127.809 15.6423C126.585 16.0356 125.634 16.6586 124.957 17.511C124.279 18.3418 123.94 19.4128 123.94 20.7241C123.94 21.9264 124.213 22.9646 124.76 23.8393C125.306 24.6917 126.06 25.347 127.022 25.8063C128.006 26.265 129.143 26.4946 130.432 26.4946C131.678 26.4946 132.727 26.265 133.58 25.8063C134.454 25.347 135.132 24.6917 135.612 23.8393C135.697 23.6952 135.776 23.5463 135.85 23.3914C135.954 23.1726 136.046 22.9424 136.128 22.7009L136.17 22.5736ZM135.284 19.3801V17.9374H132.006C131.088 17.9374 130.378 18.1668 129.875 18.6259C129.394 19.063 129.153 19.6641 129.153 20.429C129.153 20.7891 129.213 21.1168 129.333 21.4114C129.454 21.7071 129.634 21.9698 129.875 22.1999C130.378 22.637 131.088 22.8552 132.006 22.8552C132.18 22.8552 132.349 22.8466 132.512 22.8298C132.646 22.8157 132.775 22.7957 132.9 22.7702C133.141 22.7215 133.368 22.6516 133.58 22.5601C134.061 22.3418 134.454 21.9811 134.759 21.478C135.066 20.9754 135.241 20.2762 135.284 19.3801Z" fill="black"/>
<path d="M143.473 26.0362V8.06876H147.637V13.9992C147.836 12.3063 148.339 10.9412 149.145 9.90476C150.238 8.52776 151.811 7.83936 153.867 7.83936H154.555V12.3638H153.243C151.801 12.3638 150.686 12.7572 149.899 13.5441C149.112 14.3091 148.718 15.424 148.718 16.8883V26.0362H143.473Z" fill="black"/>
<path d="M161.207 17.6425H162.945L168.616 26.0362H174.518L167.326 15.7278L173.239 8.06876H167.732L161.207 16.6119V2.10156H155.961V26.0362H161.207V17.6425Z" fill="black"/>
</g>
</svg>
