<svg width="167" height="34" viewBox="0 0 167 34" fill="none" xmlns="http://www.w3.org/2000/svg">
<mask id="mask0_54_128" style="mask-type:luminance" maskUnits="userSpaceOnUse" x="0" y="0" width="167" height="34">
<path d="M167 0H0V34H167V0Z" fill="white"/>
</mask>
<g mask="url(#mask0_54_128)">
<path d="M20.3805 4.57407H8.73438V0.93457H20.3805C24.4007 0.93457 27.6595 4.19347 27.6595 8.21347V19.8598H24.02V8.21347C24.02 6.20347 22.3906 4.57407 20.3805 4.57407Z" fill="black"/>
<path d="M7.279 24.9546H18.9251V28.594H7.279C3.2589 28.594 0 25.3353 0 21.3151V9.66882H3.6395V21.3151C3.6395 23.3252 5.2689 24.9546 7.279 24.9546Z" fill="black"/>
<path fill-rule="evenodd" clip-rule="evenodd" d="M21.1085 14.7643C21.1085 18.7844 17.8498 22.0432 13.8297 22.0432C9.80968 22.0432 6.55078 18.7844 6.55078 14.7643C6.55078 10.7442 9.80968 7.48535 13.8297 7.48535C17.8498 7.48535 21.1085 10.7442 21.1085 14.7643ZM17.4692 14.7643C17.4692 16.7743 15.8397 18.4038 13.8297 18.4038C11.8197 18.4038 10.1903 16.7743 10.1903 14.7643C10.1903 12.7543 11.8197 11.1248 13.8297 11.1248C15.8397 11.1248 17.4692 12.7543 17.4692 14.7643Z" fill="black"/>
<path d="M43.1917 26.2763C41.8135 26.2763 40.5728 26.0401 39.4696 25.5673C38.3669 25.0753 37.5003 24.386 36.8703 23.4998C36.24 22.6135 35.9248 21.5796 35.9248 20.3978H39.529C39.6076 21.284 39.9522 22.0127 40.563 22.5841C41.1929 23.1551 42.0693 23.4408 43.1917 23.4408C44.3538 23.4408 45.2597 23.1649 45.9097 22.6135C46.5593 22.0425 46.8844 21.3139 46.8844 20.4277C46.8844 19.7384 46.6776 19.1772 46.2642 18.7437C45.87 18.3104 45.3681 17.9756 44.7574 17.7393C44.1668 17.503 43.3395 17.247 42.276 16.9713C40.9371 16.6168 39.8442 16.2623 38.9972 15.9078C38.17 15.5337 37.461 14.9626 36.8703 14.1945C36.2793 13.4265 35.9841 12.4024 35.9841 11.1223C35.9841 9.94072 36.2793 8.90682 36.8703 8.02062C37.461 7.13442 38.2883 6.45502 39.3517 5.98232C40.4152 5.50962 41.6461 5.27332 43.0443 5.27332C45.0333 5.27332 46.658 5.77552 47.9183 6.77992C49.1983 7.76462 49.9073 9.12342 50.0452 10.8564H46.3231C46.2642 10.1081 45.9097 9.46802 45.2597 8.93632C44.6097 8.40462 43.7533 8.13872 42.6899 8.13872C41.7247 8.13872 40.9371 8.38492 40.3264 8.87722C39.716 9.36962 39.4107 10.0786 39.4107 11.0042C39.4107 11.6343 39.5978 12.1562 39.9719 12.5698C40.3657 12.9637 40.8581 13.2788 41.4492 13.5151C42.0399 13.7514 42.8471 14.0074 43.8712 14.2831C45.2302 14.6573 46.333 15.0315 47.1799 15.4057C48.0464 15.7798 48.7751 16.3608 49.3657 17.1485C49.9765 17.9166 50.2814 18.9504 50.2814 20.2504C50.2814 21.2939 49.9961 22.2787 49.4251 23.2042C48.8733 24.1297 48.0563 24.8784 46.9732 25.4494C45.9097 26.0008 44.6494 26.2763 43.1917 26.2763Z" fill="black"/>
<path d="M60.9904 9.52722C62.2708 9.52722 63.4129 9.79312 64.4174 10.3248C65.4412 10.8565 66.2389 11.6443 66.81 12.6881C67.381 13.7318 67.6667 14.9922 67.6667 16.4692V26.0697H64.3286V16.9714C64.3286 15.5141 63.9642 14.4014 63.2356 13.6333C62.507 12.8456 61.5123 12.4517 60.252 12.4517C58.9916 12.4517 57.9871 12.8456 57.2389 13.6333C56.5102 14.4014 56.1459 15.5141 56.1459 16.9714V26.0697H52.7783V9.79312H56.1459V11.6541C56.6973 10.9846 57.3965 10.4627 58.2434 10.0885C59.1099 9.71432 60.0256 9.52722 60.9904 9.52722Z" fill="black"/>
<path d="M69.3623 17.8576C69.3623 16.223 69.6971 14.7756 70.3668 13.5152C71.0561 12.2548 71.9816 11.2799 73.1434 10.5907C74.3251 9.88172 75.6247 9.52722 77.043 9.52722C78.323 9.52722 79.436 9.78332 80.381 10.2953C81.346 10.7876 82.114 11.408 82.685 12.1563V9.79312H86.082V26.0697H82.685V23.6476C82.114 24.4155 81.336 25.0557 80.351 25.5674C79.367 26.0795 78.244 26.3357 76.984 26.3357C75.5854 26.3357 74.3054 25.9812 73.1434 25.2723C71.9816 24.5436 71.0561 23.5392 70.3668 22.2591C69.6971 20.9595 69.3623 19.4921 69.3623 17.8576ZM82.685 17.9167C82.685 16.7941 82.449 15.8193 81.976 14.9922C81.523 14.1651 80.922 13.5349 80.174 13.1016C79.426 12.6684 78.618 12.4517 77.752 12.4517C76.885 12.4517 76.078 12.6684 75.3296 13.1016C74.5809 13.5152 73.9706 14.1355 73.4978 14.9627C73.0451 15.7701 72.8187 16.735 72.8187 17.8576C72.8187 18.98 73.0451 19.9648 73.4978 20.8117C73.9706 21.6583 74.5809 22.3083 75.3296 22.7614C76.098 23.1945 76.905 23.411 77.752 23.411C78.618 23.411 79.426 23.1945 80.174 22.7614C80.922 22.3279 81.523 21.6979 81.976 20.8707C82.449 20.0238 82.685 19.0393 82.685 17.9167Z" fill="black"/>
<path d="M92.396 12.1858C92.967 11.4375 93.745 10.8073 94.73 10.2953C95.714 9.78332 96.827 9.52722 98.068 9.52722C99.486 9.52722 100.775 9.88172 101.938 10.5907C103.119 11.2799 104.045 12.2548 104.714 13.5152C105.384 14.7756 105.719 16.223 105.719 17.8576C105.719 19.4921 105.384 20.9595 104.714 22.2591C104.045 23.5392 103.119 24.5436 101.938 25.2723C100.775 25.9812 99.486 26.3357 98.068 26.3357C96.827 26.3357 95.724 26.0893 94.759 25.5973C93.794 25.0852 93.007 24.4548 92.396 23.7066V33.8094H89.028V9.79312H92.396V12.1858ZM102.292 17.8576C102.292 16.735 102.056 15.7701 101.583 14.9627C101.13 14.1355 100.52 13.5152 99.752 13.1016C99.003 12.6684 98.196 12.4517 97.329 12.4517C96.482 12.4517 95.675 12.6684 94.907 13.1016C94.159 13.5349 93.548 14.1651 93.075 14.9922C92.623 15.8193 92.396 16.7941 92.396 17.9167C92.396 19.0393 92.623 20.0238 93.075 20.8707C93.548 21.6979 94.159 22.3279 94.907 22.7614C95.675 23.1945 96.482 23.411 97.329 23.411C98.196 23.411 99.003 23.1945 99.752 22.7614C100.52 22.3083 101.13 21.6583 101.583 20.8117C102.056 19.9648 102.292 18.98 102.292 17.8576Z" fill="black"/>
<path d="M114.336 26.2763C112.958 26.2763 111.717 26.0401 110.614 25.5673C109.511 25.0753 108.645 24.386 108.015 23.4998C107.385 22.6135 107.069 21.5796 107.069 20.3978H110.674C110.752 21.284 111.097 22.0127 111.707 22.5841C112.337 23.1551 113.214 23.4408 114.336 23.4408C115.498 23.4408 116.404 23.1649 117.054 22.6135C117.704 22.0425 118.029 21.3139 118.029 20.4277C118.029 19.7384 117.822 19.1772 117.409 18.7437C117.015 18.3104 116.513 17.9756 115.902 17.7393C115.311 17.503 114.484 17.247 113.421 16.9713C112.082 16.6168 110.988 16.2623 110.142 15.9078C109.315 15.5337 108.606 14.9626 108.015 14.1945C107.424 13.4265 107.129 12.4024 107.129 11.1223C107.129 9.94072 107.424 8.90682 108.015 8.02062C108.606 7.13442 109.433 6.45502 110.496 5.98232C111.56 5.50962 112.791 5.27332 114.189 5.27332C116.178 5.27332 117.803 5.77552 119.063 6.77992C120.343 7.76462 121.052 9.12342 121.19 10.8564H117.468C117.409 10.1081 117.054 9.46802 116.404 8.93632C115.754 8.40462 114.897 8.13872 113.834 8.13872C112.869 8.13872 112.082 8.38492 111.471 8.87722C110.861 9.36962 110.555 10.0786 110.555 11.0042C110.555 11.6343 110.742 12.1562 111.116 12.5698C111.51 12.9637 112.003 13.2788 112.593 13.5151C113.184 13.7514 113.992 14.0074 115.016 14.2831C116.375 14.6573 117.478 15.0315 118.324 15.4057C119.191 15.7798 119.92 16.3608 120.51 17.1485C121.121 17.9166 121.426 18.9504 121.426 20.2504C121.426 21.2939 121.141 22.2787 120.569 23.2042C120.018 24.1297 119.201 24.8784 118.118 25.4494C117.054 26.0008 115.794 26.2763 114.336 26.2763Z" fill="black"/>
<path d="M132.341 9.52763C133.581 9.52763 134.685 9.79353 135.649 10.3252C136.634 10.8569 137.402 11.6447 137.954 12.6884C138.525 13.7322 138.81 14.9925 138.81 16.4696V26.0701H135.472V16.9718C135.472 15.5144 135.108 14.4018 134.379 13.6337C133.651 12.846 132.656 12.4521 131.396 12.4521C130.135 12.4521 129.131 12.846 128.382 13.6337C127.654 14.4018 127.289 15.5144 127.289 16.9718V26.0701H123.922V4.21033H127.289V11.684C127.861 10.9948 128.579 10.463 129.446 10.0889C130.332 9.71473 131.297 9.52763 132.341 9.52763Z" fill="black"/>
<path d="M148.689 26.3357C147.153 26.3357 145.765 25.9911 144.524 25.3017C143.284 24.5928 142.309 23.6079 141.6 22.3476C140.891 21.0676 140.536 19.5907 140.536 17.9167C140.536 16.2624 140.9 14.7952 141.629 13.5152C142.358 12.2351 143.352 11.2504 144.613 10.5611C145.873 9.87192 147.281 9.52722 148.837 9.52722C150.393 9.52722 151.801 9.87192 153.061 10.5611C154.322 11.2504 155.316 12.2351 156.045 13.5152C156.774 14.7952 157.138 16.2624 157.138 17.9167C157.138 19.571 156.764 21.0381 156.015 22.3181C155.267 23.5981 154.243 24.5928 152.943 25.3017C151.663 25.9911 150.245 26.3357 148.689 26.3357ZM148.689 23.411C149.556 23.411 150.363 23.2043 151.112 22.7909C151.88 22.3774 152.5 21.7569 152.973 20.9296C153.445 20.1028 153.682 19.0983 153.682 17.9167C153.682 16.7351 153.455 15.7406 153.002 14.9331C152.549 14.106 151.948 13.4856 151.2 13.0721C150.452 12.6585 149.644 12.4517 148.778 12.4517C147.912 12.4517 147.104 12.6585 146.356 13.0721C145.627 13.4856 145.046 14.106 144.613 14.9331C144.18 15.7406 143.963 16.7351 143.963 17.9167C143.963 19.6693 144.406 21.0283 145.292 21.9931C146.198 22.9386 147.33 23.411 148.689 23.411Z" fill="black"/>
<path d="M162.918 12.5403V21.5502C162.918 22.1605 163.056 22.6038 163.332 22.8793C163.627 23.1355 164.12 23.2637 164.809 23.2637H166.877V26.0697H164.218C162.702 26.0697 161.54 25.7152 160.733 25.0062C159.925 24.2973 159.521 23.1454 159.521 21.5502V12.5403H157.602V9.79309H159.521V5.74609H162.918V9.79309H166.877V12.5403H162.918Z" fill="black"/>
</g>
</svg>
