<svg width="40" height="40" viewBox="0 0 40 40" fill="none" xmlns="http://www.w3.org/2000/svg">
<g clip-path="url(#clip0_1_1858)">
<path d="M4.66889 21.1778C3.37247 20.6296 3.33947 18.9038 4.60578 18.2892C8.89927 16.2058 17.3287 12.5141 26.2638 10.8073C26.6105 10.7381 26.9689 10.7556 27.3072 10.8581C27.6456 10.9606 27.9534 11.145 28.2033 11.395C28.4533 11.645 28.6377 11.9528 28.7403 12.2911C28.8428 12.6294 28.8602 12.9878 28.7911 13.3345C27.0838 22.2692 23.3925 30.6991 21.3091 34.9926C20.6945 36.2589 18.9683 36.2255 18.4201 34.929C17.2433 32.1436 16.2612 29.3235 15.7984 27.9458C15.6126 27.3889 15.6492 26.7818 15.9007 26.2513L18.1491 21.4488L13.347 23.6977C12.8166 23.9491 12.2094 23.9857 11.6526 23.8C10.2749 23.3371 7.45477 22.355 4.66889 21.1778Z" stroke="white" stroke-width="1.5" stroke-linejoin="round"/>
</g>
<defs>
<clipPath id="clip0_1_1858">
<rect width="28" height="28" fill="white" transform="translate(0 19.799) rotate(-45)"/>
</clipPath>
</defs>
</svg>
