<svg width="130" height="31" viewBox="0 0 130 31" fill="none" xmlns="http://www.w3.org/2000/svg">
<mask id="mask0_54_200" style="mask-type:luminance" maskUnits="userSpaceOnUse" x="0" y="0" width="130" height="31">
<path d="M130 0.5H0V30.5H130V0.5Z" fill="white"/>
</mask>
<g mask="url(#mask0_54_200)">
<path d="M44.6981 28.7781C41.6975 28.7781 39.3575 27.9418 37.6772 26.2683C36.0172 24.5952 35.187 22.2062 35.187 19.1018V7.24805H40.0476V18.9203C40.0476 22.7105 41.6078 24.6054 44.728 24.6054C46.2483 24.6054 47.4084 24.1516 48.2084 23.2444C49.0083 22.3173 49.4085 20.8758 49.4085 18.9203V7.24805H54.2088V19.1018C54.2088 22.2062 53.3689 24.5952 51.6887 26.2683C50.0287 27.9418 47.6984 28.7781 44.6981 28.7781Z" fill="black"/>
<path d="M56.5815 18.0137H65.073V21.7937H56.5815V18.0137Z" fill="black"/>
<path d="M70.852 11.2396H64.131V7.24805H82.433V11.2396H75.712V28.4155H70.852V11.2396Z" fill="black"/>
<path d="M99.127 12.1465V28.4152H94.687V26.48C94.067 27.1853 93.327 27.7298 92.467 28.1128C91.607 28.4754 90.677 28.6569 89.676 28.6569C87.556 28.6569 85.876 28.042 84.636 26.8125C83.396 25.5826 82.776 23.7581 82.776 21.3391V12.1465H87.456V20.6437C87.456 23.2645 88.547 24.5749 90.727 24.5749C91.847 24.5749 92.747 24.2119 93.427 23.4863C94.107 22.7403 94.447 21.6415 94.447 20.1901V12.1465H99.127Z" fill="black"/>
<path d="M106.434 14.2932C106.994 13.507 107.744 12.9123 108.684 12.5091C109.645 12.1059 110.745 11.9043 111.985 11.9043V16.2587C111.465 16.2184 111.115 16.1982 110.935 16.1982C109.594 16.1982 108.545 16.5813 107.784 17.3473C107.024 18.0932 106.644 19.2221 106.644 20.7341V28.4149H101.964V12.1462H106.434V14.2932Z" fill="black"/>
<path d="M123.079 11.9043C125.079 11.9043 126.689 12.5091 127.909 13.7186C129.149 14.9282 129.769 16.7224 129.769 19.1012V28.4149H125.089V19.8269C125.089 18.5367 124.809 17.5791 124.249 16.9542C123.689 16.3091 122.879 15.9866 121.818 15.9866C120.639 15.9866 119.699 16.3595 118.998 17.1054C118.298 17.8311 117.948 18.9198 117.948 20.3712V28.4149H113.268V12.1462H117.738V14.0513C118.358 13.3658 119.128 12.8417 120.049 12.4788C120.968 12.0958 121.979 11.9043 123.079 11.9043Z" fill="black"/>
<path fill-rule="evenodd" clip-rule="evenodd" d="M14.2771 1.74791C15.0753 0.943406 16.3694 0.943406 17.1676 1.74791L24.6421 9.28131L17.1336 16.5049C16.3171 17.2905 15.0233 17.2602 14.2439 16.4372C13.4645 15.6143 13.4946 14.3104 14.3111 13.5248L16.6164 11.307H11.6346C7.6462 11.307 4.4129 14.5657 4.4129 18.5854C4.4129 22.6054 7.6462 25.8641 11.6346 25.8641H21.7177C22.8464 25.8641 23.7618 26.7863 23.7618 27.9238C23.7618 29.0617 22.8464 29.9839 21.7177 29.9839H11.6346C5.3886 29.9839 0.325195 24.8808 0.325195 18.5854C0.325195 12.2903 5.3886 7.18701 11.6346 7.18701H16.7834L14.2771 4.66111C13.479 3.85661 13.479 2.55241 14.2771 1.74791Z" fill="black"/>
</g>
</svg>
