<svg width="104" height="32" viewBox="0 0 104 32" fill="none" xmlns="http://www.w3.org/2000/svg">
<path d="M15.656 0.960083H20.6884L15.2045 24.044H6.35399L0.870087 0.960083H5.90279L9.99858 19.9703H11.5602L15.656 0.960083Z" fill="black"/>
<path d="M25.4873 17.4927C25.5104 18.5338 25.788 19.292 26.3202 19.7672C26.8754 20.2198 27.6622 20.4461 28.6805 20.4461C30.8322 20.4461 32.7528 20.3782 34.4419 20.2425L35.4138 20.1406L35.4833 23.5015C32.8223 24.1351 30.4156 24.452 28.2639 24.452C25.6494 24.452 23.7518 23.773 22.5719 22.415C21.3916 21.0572 20.8018 18.8506 20.8018 15.7954C20.8018 9.70759 23.3586 6.6637 28.472 6.6637C33.5162 6.6637 36.0385 9.221 36.0385 14.3357L35.6914 17.4927H25.4873ZM31.457 14.0302C31.457 12.6723 31.2373 11.7331 30.7977 11.2126C30.358 10.6694 29.5828 10.3978 28.472 10.3978C27.3846 10.3978 26.6093 10.6807 26.1466 11.2465C25.707 11.7897 25.4758 12.7175 25.4524 14.0302H31.457Z" fill="black"/>
<path d="M38.667 24.0445V7.071H43.2831V8.8702C45.227 7.7387 47.078 7.0031 48.836 6.6637V11.2465C46.962 11.6313 45.354 12.0273 44.012 12.4347L43.3177 12.6723V24.0445H38.667Z" fill="black"/>
<path d="M60.501 10.9407H56.232V17.8998C56.232 18.5788 56.244 19.0653 56.267 19.3595C56.313 19.6311 56.44 19.8687 56.649 20.0724C56.88 20.2761 57.227 20.378 57.69 20.378L60.328 20.3101L60.536 23.9425C58.985 24.282 57.806 24.4517 56.996 24.4517C54.913 24.4517 53.49 23.9988 52.727 23.0937C51.963 22.1658 51.581 20.4685 51.581 18.0017V10.9407H49.533V7.07077H51.581V2.35217H56.232V7.07077H60.501V10.9407Z" fill="black"/>
<path d="M62.837 24.0442V7.07065H67.488V24.0442H62.837ZM62.837 4.89805V0.28125H67.488V4.89805H62.837Z" fill="black"/>
<path d="M86.813 26.149C86.813 28.0955 86.049 29.5323 84.522 30.4603C82.995 31.3883 80.924 31.8521 78.31 31.8521C75.718 31.8521 73.717 31.5126 72.305 30.8336C70.917 30.155 70.223 28.9213 70.223 27.1337C70.223 25.7077 71.056 24.3614 72.722 23.0939C71.866 22.528 71.437 21.668 71.437 20.5139C71.437 20.0613 71.785 19.3144 72.479 18.2734L72.791 17.7982C71.218 16.6892 70.431 15.0598 70.431 12.9098C70.431 10.7372 71.09 9.16435 72.409 8.19125C73.751 7.21805 75.521 6.73145 77.72 6.73145C78.714 6.73145 79.698 6.84465 80.67 7.07095L81.225 7.17275L86.813 7.00305V10.6354L84.21 10.4317C84.719 11.2011 84.974 11.9706 84.974 12.7401C84.974 15.0032 84.384 16.5647 83.203 17.4247C82.024 18.2847 80.172 18.7147 77.65 18.7147C77.118 18.7147 76.644 18.6695 76.227 18.5789C75.996 19.1673 75.88 19.6539 75.88 20.0386C75.88 20.4008 76.077 20.6497 76.47 20.7855C76.863 20.9213 77.789 21.0005 79.247 21.0231C82.162 21.0457 84.152 21.4306 85.217 22.1772C86.281 22.9016 86.813 24.2254 86.813 26.149ZM74.804 26.6583C74.804 27.6313 76.019 28.118 78.448 28.118C80.901 28.118 82.128 27.5521 82.128 26.4205C82.128 25.8095 81.919 25.4137 81.503 25.2326C81.086 25.0742 80.207 24.9837 78.865 24.9611L75.741 24.7234C75.117 25.3344 74.804 25.9793 74.804 26.6583ZM75.082 12.774C75.082 14.4261 75.961 15.2521 77.72 15.2521C79.501 15.2521 80.392 14.4261 80.392 12.774C80.392 11.0993 79.501 10.2619 77.72 10.2619C75.961 10.2619 75.082 11.0993 75.082 12.774Z" fill="black"/>
<path d="M89.873 9.00599C91.1 7.44439 93.147 6.6637 96.017 6.6637C98.886 6.6637 100.934 7.44439 102.16 9.00599C103.386 10.5449 104 12.7175 104 15.5238C104 21.4758 101.339 24.452 96.017 24.452C90.695 24.452 88.034 21.4758 88.034 15.5238C88.034 12.7175 88.647 10.5449 89.873 9.00599ZM93.449 19.3598C93.934 20.1746 94.79 20.5819 96.017 20.5819C97.243 20.5819 98.088 20.1746 98.551 19.3598C99.036 18.5451 99.279 17.2664 99.279 15.5238C99.279 13.7812 99.036 12.5139 98.551 11.7218C98.088 10.9297 97.243 10.5336 96.017 10.5336C94.79 10.5336 93.934 10.9297 93.449 11.7218C92.986 12.5139 92.754 13.7812 92.754 15.5238C92.754 17.2664 92.986 18.5451 93.449 19.3598Z" fill="black"/>
</svg>
