<svg width="30" height="20" viewBox="0 0 30 20" fill="none" xmlns="http://www.w3.org/2000/svg">
<path d="M29.1044 19.2563H18.8256V10.3813L29.0437 0.893755C29.094 0.847375 29.1304 0.787882 29.1487 0.721972C29.167 0.656061 29.1665 0.58635 29.1474 0.520682C29.1282 0.455015 29.0911 0.395999 29.0402 0.350277C28.9893 0.304554 28.9267 0.27394 28.8594 0.26188C25.4019 -0.36312 22.6994 0.163755 20.8281 1.83563C19.4969 3.02313 18.8044 4.59063 18.4475 5.9875C18.0906 4.58875 17.3981 3.0225 16.0675 1.83438C14.1925 0.163754 11.4937 -0.36437 8.03562 0.26188C7.96833 0.274032 7.90577 0.304712 7.85497 0.350473C7.80417 0.396233 7.76714 0.455257 7.74805 0.52091C7.72896 0.586562 7.72856 0.656239 7.7469 0.722106C7.76524 0.787972 7.80159 0.847417 7.85187 0.893755L18.0694 10.3825V19.2575H6.45062V15.0781L11.5131 10.3794C11.5634 10.3327 11.5996 10.2729 11.6177 10.2068C11.6358 10.1406 11.6351 10.0707 11.6156 10.005C11.5961 9.93919 11.5586 9.88018 11.5074 9.83459C11.4562 9.78899 11.3932 9.75861 11.3256 9.74688C9.53187 9.4225 8.12937 9.70188 7.14687 10.5788C6.66532 11.0206 6.29815 11.5726 6.07687 12.1875C5.85599 11.5731 5.48924 11.0214 5.00812 10.58C4.02624 9.705 2.62124 9.4225 0.829368 9.74813C0.761902 9.7601 0.699128 9.7907 0.648132 9.83647C0.597137 9.88223 0.559953 9.94135 0.540777 10.0071C0.521601 10.0729 0.521198 10.1427 0.539614 10.2087C0.558029 10.2747 0.594529 10.3343 0.644993 10.3806L5.70374 15.0781V19.2563H1.23999C1.1449 19.2602 1.05501 19.3007 0.989113 19.3694C0.923217 19.438 0.886421 19.5295 0.886421 19.6247C0.886421 19.7199 0.923217 19.8113 0.989113 19.88C1.05501 19.9487 1.1449 19.9892 1.23999 19.9931H29.1044C29.154 19.9952 29.2036 19.9872 29.2501 19.9696C29.2966 19.952 29.339 19.9252 29.3749 19.8907C29.4107 19.8563 29.4393 19.815 29.4588 19.7693C29.4782 19.7236 29.4883 19.6744 29.4883 19.6247C29.4883 19.575 29.4782 19.5258 29.4588 19.4801C29.4393 19.4344 29.4107 19.393 29.3749 19.3586C29.339 19.3242 29.2966 19.2974 29.2501 19.2798C29.2036 19.2622 29.154 19.2542 29.1044 19.2563ZM7.63749 11.125C8.21562 10.6088 8.99562 10.3494 9.96687 10.3494C10.1187 10.3494 10.2737 10.355 10.4344 10.3675L6.45062 14.0675C6.47937 13.395 6.66249 12 7.63749 11.125ZM1.71999 10.37C2.90749 10.2806 3.84499 10.5294 4.51374 11.1244C5.48124 11.9856 5.66999 13.3744 5.70124 14.0681L1.71999 10.37ZM21.3219 2.38188C22.545 1.29125 24.1837 0.743129 26.2137 0.743129C26.8073 0.745159 27.4001 0.786919 27.9881 0.868129L18.825 9.37813V9.33938C18.825 9.3325 18.8175 9.21 18.8175 9.00063V8.94563C18.8244 7.79813 19.0469 4.41063 21.3219 2.38188ZM8.90749 0.86938C11.7694 0.485005 14.01 0.988755 15.5737 2.38188C18.33 4.83938 18.0737 9.29438 18.0694 9.36376V9.375L8.90749 0.86938Z" fill="black"/>
</svg>
