<svg width="150" height="34" viewBox="0 0 150 34" fill="none" xmlns="http://www.w3.org/2000/svg">
<mask id="mask0_54_183" style="mask-type:luminance" maskUnits="userSpaceOnUse" x="0" y="0" width="150" height="34">
<path d="M150 0H0V34H150V0Z" fill="white"/>
</mask>
<g mask="url(#mask0_54_183)">
<path fill-rule="evenodd" clip-rule="evenodd" d="M6.30189 9.20777C8.79839 5.84977 12.7962 3.67417 17.3021 3.67417C21.8344 3.67417 25.8525 5.87537 28.346 9.26707C28.2399 9.37627 28.1432 9.48937 28.0558 9.60227C27.599 10.1938 27.2554 10.9557 26.98 11.7293C26.4256 13.2853 26.0027 15.3178 25.6111 17.2211L25.5764 17.3922C25.1857 19.292 24.8226 21.0588 24.3835 22.3704C24.1863 22.9596 23.9992 23.3761 23.8333 23.643C23.6602 23.374 23.4638 22.9524 23.256 22.3547C22.7864 21.0054 22.3915 19.1703 21.9728 17.2107L21.9592 17.1466C21.5569 15.2644 21.1301 13.2673 20.598 11.7386C20.3306 10.9707 20.0026 10.2165 19.5736 9.63047C19.1525 9.05537 18.4517 8.40637 17.4266 8.40637C16.408 8.40637 15.7039 9.04837 15.2768 9.61697C14.8395 10.1992 14.4985 10.9503 14.2177 11.7186C13.6521 13.2657 13.1897 15.2894 12.7593 17.1953L12.7149 17.3922C12.2887 19.2802 11.8903 21.0452 11.4381 22.3593C11.2655 22.8612 11.1026 23.2429 10.9551 23.5157C10.811 23.2442 10.6522 22.865 10.4843 22.3674C10.0504 21.0813 9.67039 19.3656 9.26219 17.5229L9.19079 17.2004C8.76789 15.2934 8.30909 13.266 7.73539 11.7141C7.45039 10.9429 7.10179 10.188 6.65059 9.60307C6.54849 9.47067 6.43239 9.33627 6.30189 9.20777ZM4.79099 11.7862C4.90989 12.021 5.03559 12.312 5.16569 12.6639C5.66219 14.0072 6.08289 15.8402 6.51609 17.7936L6.60039 18.1742C6.99479 19.9566 7.40509 21.8106 7.88839 23.2429C8.14539 24.0048 8.45579 24.751 8.85499 25.3309C9.23249 25.8794 9.90969 26.5878 10.9511 26.5878C11.9895 26.5878 12.6683 25.8828 13.0484 25.3368C13.451 24.7582 13.7665 24.0129 14.0287 23.2506C14.5314 21.7898 14.9594 19.8923 15.369 18.0764L15.4317 17.7987C15.873 15.8442 16.2978 14.0075 16.7908 12.6593C17.0191 12.0347 17.2329 11.5995 17.419 11.3296C17.5954 11.5972 17.7969 12.0254 18.0106 12.6393C18.4803 13.9886 18.8749 15.8238 19.2937 17.7833L19.3074 17.8475C19.7096 19.7297 20.1364 21.7268 20.6685 23.2552C20.9358 24.0235 21.2639 24.7777 21.6929 25.3635C22.114 25.9387 22.8148 26.5878 23.8397 26.5878C24.8701 26.5878 25.5683 25.9328 25.9844 25.3525C26.407 24.7637 26.7247 24.0069 26.9813 23.24C27.4747 21.7668 27.8671 19.8554 28.2408 18.037L28.2947 17.7729C28.6972 15.8158 29.0837 13.9879 29.5609 12.6486C29.6644 12.3572 29.7662 12.1088 29.8634 11.9002C30.5947 13.5762 31.0002 15.427 31.0002 17.3724C31.0002 24.9376 24.8675 31.0707 17.3021 31.0707C9.73679 31.0707 3.60389 24.9376 3.60389 17.3724C3.60389 15.3828 4.02809 13.4922 4.79099 11.7862ZM17.3021 0.93457C8.22369 0.93457 0.864288 8.29407 0.864288 17.3724C0.864288 26.4508 8.22369 33.8102 17.3021 33.8102C26.3807 33.8102 33.7397 26.4508 33.7397 17.3724C33.7397 8.29407 26.3807 0.93457 17.3021 0.93457ZM17.6152 11.1002C17.6152 11.1002 17.6121 11.1031 17.6056 11.1069C17.612 11.1018 17.6152 11.1002 17.6152 11.1002ZM17.2366 11.1021C17.2302 11.0982 17.2271 11.0952 17.2271 11.0952C17.2271 11.0952 17.2303 11.0968 17.2366 11.1021ZM23.6314 23.903C23.6314 23.903 23.6344 23.9 23.6403 23.8962C23.6344 23.9013 23.6314 23.903 23.6314 23.903ZM24.0297 23.892C24.0361 23.8958 24.0395 23.8988 24.0395 23.8988C24.0395 23.8988 24.0361 23.8971 24.0297 23.892ZM10.6704 23.9276C10.6704 23.9276 10.6743 23.9234 10.6822 23.9178C10.6744 23.9251 10.6704 23.9276 10.6704 23.9276ZM11.2252 23.9204C11.233 23.9259 11.2369 23.9301 11.2369 23.9301C11.2369 23.9301 11.2329 23.928 11.2252 23.9204Z" fill="black"/>
<path d="M42.8163 27.1034L38.8301 13.4683H42.3217L44.6858 23.2822L47.4346 13.4683H51.3381L54.0874 23.2822L56.479 13.4683H59.9702L55.9568 27.1034H52.3006L49.3863 16.9046L46.4725 27.1034H42.8163Z" fill="black"/>
<path d="M65.0934 27.4337C63.9205 27.4337 62.9584 27.2501 62.2071 26.8835C61.4558 26.4988 60.8967 25.9948 60.5302 25.3717C60.1637 24.7485 59.9805 24.0613 59.9805 23.3101C59.9805 22.0455 60.4751 21.0192 61.4648 20.2311C62.4544 19.4431 63.9391 19.049 65.9185 19.049H69.382V18.7191C69.382 17.7845 69.116 17.0972 68.585 16.6574C68.053 16.2175 67.393 15.9976 66.6057 15.9976C65.8909 15.9976 65.2677 16.1717 64.7362 16.5199C64.2047 16.8498 63.8746 17.3446 63.7465 18.0044H60.3101C60.4021 17.0148 60.7317 16.1534 61.2997 15.4203C61.8864 14.6873 62.6377 14.1283 63.5539 13.7435C64.4706 13.3403 65.4968 13.1387 66.6328 13.1387C68.576 13.1387 70.106 13.6243 71.224 14.5956C72.342 15.5669 72.901 16.9415 72.901 18.7191V27.1037H69.904L69.575 24.9046C69.171 25.6377 68.603 26.2421 67.87 26.719C67.155 27.1953 66.2298 27.4337 65.0934 27.4337ZM65.8909 24.6845C66.8988 24.6845 67.678 24.3544 68.227 23.6948C68.795 23.0352 69.153 22.2194 69.3 21.2482H66.3032C65.3683 21.2482 64.6997 21.4224 64.2963 21.7705C63.8933 22.1004 63.6914 22.513 63.6914 23.0076C63.6914 23.5391 63.8933 23.9515 64.2963 24.2446C64.6997 24.5377 65.2308 24.6845 65.8909 24.6845Z" fill="black"/>
<path d="M78.44 27.1034L73.438 13.4683H77.121L80.585 23.7773L84.049 13.4683H87.732L82.702 27.1034H78.44Z" fill="black"/>
<path d="M94.806 27.4337C93.432 27.4337 92.213 27.1402 91.15 26.5539C90.087 25.9673 89.253 25.1426 88.648 24.0796C88.043 23.0169 87.741 21.7889 87.741 20.396C87.741 18.9849 88.034 17.7295 88.621 16.6299C89.226 15.5303 90.05 14.6781 91.095 14.0733C92.158 13.4502 93.404 13.1387 94.833 13.1387C96.171 13.1387 97.354 13.4319 98.38 14.0183C99.406 14.6048 100.203 15.4112 100.771 16.4375C101.358 17.4454 101.651 18.5725 101.651 19.8188C101.651 20.0204 101.642 20.2311 101.624 20.451C101.624 20.671 101.614 20.9 101.596 21.1383H91.232C91.306 22.2012 91.672 23.0352 92.332 23.6401C93.01 24.2446 93.826 24.547 94.779 24.547C95.493 24.547 96.089 24.3914 96.566 24.0796C97.06 23.75 97.427 23.3283 97.665 22.815H101.239C100.982 23.6766 100.551 24.4647 99.947 25.1795C99.36 25.8756 98.627 26.4254 97.747 26.8288C96.886 27.2318 95.905 27.4337 94.806 27.4337ZM94.833 15.9976C93.972 15.9976 93.212 16.2451 92.552 16.7398C91.892 17.2164 91.47 17.9494 91.287 18.9391H98.077C98.022 18.041 97.693 17.3263 97.088 16.7948C96.483 16.2634 95.732 15.9976 94.833 15.9976Z" fill="black"/>
<path d="M103.511 27.1039V7.31091H107.029V27.1039H103.511Z" fill="black"/>
<path d="M116.15 27.4337C114.775 27.4337 113.556 27.1402 112.493 26.5539C111.431 25.9673 110.597 25.1426 109.992 24.0796C109.387 23.0169 109.085 21.7889 109.085 20.396C109.085 18.9849 109.378 17.7295 109.964 16.6299C110.569 15.5303 111.394 14.6781 112.439 14.0733C113.502 13.4502 114.748 13.1387 116.177 13.1387C117.515 13.1387 118.697 13.4319 119.724 14.0183C120.75 14.6048 121.547 15.4112 122.115 16.4375C122.701 17.4454 122.995 18.5725 122.995 19.8188C122.995 20.0204 122.986 20.2311 122.967 20.451C122.967 20.671 122.958 20.9 122.94 21.1383H112.576C112.65 22.2012 113.016 23.0352 113.676 23.6401C114.354 24.2446 115.169 24.547 116.122 24.547C116.837 24.547 117.433 24.3914 117.909 24.0796C118.404 23.75 118.77 23.3283 119.009 22.815H122.583C122.326 23.6766 121.895 24.4647 121.291 25.1795C120.704 25.8756 119.971 26.4254 119.091 26.8288C118.23 27.2318 117.25 27.4337 116.15 27.4337ZM116.177 15.9976C115.316 15.9976 114.555 16.2451 113.895 16.7398C113.236 17.2164 112.814 17.9494 112.631 18.9391H119.421C119.366 18.041 119.036 17.3263 118.431 16.7948C117.826 16.2634 117.075 15.9976 116.177 15.9976Z" fill="black"/>
<path d="M130.491 27.4337C129.282 27.4337 128.219 27.2411 127.302 26.8564C126.386 26.453 125.653 25.9032 125.103 25.2067C124.553 24.5106 124.224 23.7041 124.113 22.7879H127.66C127.769 23.319 128.063 23.7775 128.539 24.1623C129.034 24.5288 129.667 24.7121 130.436 24.7121C131.206 24.7121 131.765 24.5564 132.113 24.2446C132.479 23.9332 132.663 23.5756 132.663 23.1726C132.663 22.586 132.406 22.1919 131.893 21.9905C131.38 21.7705 130.665 21.5598 129.749 21.3582C129.163 21.2299 128.567 21.0741 127.962 20.8909C127.357 20.7076 126.798 20.4785 126.285 20.2036C125.79 19.9104 125.387 19.5439 125.075 19.104C124.764 18.6458 124.608 18.0869 124.608 17.4271C124.608 16.2175 125.085 15.2004 126.038 14.3757C127.009 13.551 128.365 13.1387 130.106 13.1387C131.719 13.1387 133.002 13.5143 133.955 14.2657C134.926 15.0172 135.504 16.0526 135.687 17.3721H132.361C132.159 16.3642 131.398 15.8602 130.079 15.8602C129.419 15.8602 128.906 15.9885 128.539 16.2451C128.191 16.5016 128.017 16.8223 128.017 17.2072C128.017 17.6104 128.283 17.9311 128.814 18.1694C129.346 18.4076 130.051 18.6275 130.931 18.8291C131.884 19.049 132.754 19.2964 133.542 19.5714C134.349 19.8279 134.99 20.222 135.467 20.7534C135.943 21.2666 136.181 22.0088 136.181 22.98C136.2 23.8233 135.98 24.5835 135.522 25.2618C135.064 25.9397 134.404 26.4712 133.542 26.8564C132.681 27.2411 131.664 27.4337 130.491 27.4337Z" fill="black"/>
<path d="M143.834 27.4337C142.624 27.4337 141.561 27.2411 140.645 26.8564C139.729 26.453 138.995 25.9032 138.446 25.2067C137.896 24.5106 137.566 23.7041 137.456 22.7879H141.002C141.112 23.319 141.405 23.7775 141.882 24.1623C142.377 24.5288 143.009 24.7121 143.779 24.7121C144.548 24.7121 145.107 24.5564 145.456 24.2446C145.822 23.9332 146.005 23.5756 146.005 23.1726C146.005 22.586 145.749 22.1919 145.236 21.9905C144.723 21.7705 144.008 21.5598 143.092 21.3582C142.505 21.2299 141.909 21.0741 141.304 20.8909C140.7 20.7076 140.141 20.4785 139.628 20.2036C139.133 19.9104 138.73 19.5439 138.418 19.104C138.106 18.6458 137.951 18.0869 137.951 17.4271C137.951 16.2175 138.427 15.2004 139.38 14.3757C140.352 13.551 141.708 13.1387 143.449 13.1387C145.062 13.1387 146.344 13.5143 147.298 14.2657C148.269 15.0172 148.846 16.0526 149.029 17.3721H145.703C145.501 16.3642 144.741 15.8602 143.421 15.8602C142.762 15.8602 142.248 15.9885 141.882 16.2451C141.533 16.5016 141.36 16.8223 141.36 17.2072C141.36 17.6104 141.625 17.9311 142.157 18.1694C142.688 18.4076 143.394 18.6275 144.273 18.8291C145.227 19.049 146.097 19.2964 146.885 19.5714C147.692 19.8279 148.333 20.222 148.809 20.7534C149.286 21.2666 149.524 22.0088 149.524 22.98C149.542 23.8233 149.323 24.5835 148.865 25.2618C148.406 25.9397 147.746 26.4712 146.885 26.8564C146.024 27.2411 145.006 27.4337 143.834 27.4337Z" fill="black"/>
</g>
</svg>
