<svg width="28" height="28" viewBox="0 0 28 28" fill="none" xmlns="http://www.w3.org/2000/svg">
<path d="M16.5433 4.98866C16.7674 5.04856 16.9586 5.19504 17.0748 5.39588C17.191 5.59672 17.2226 5.83548 17.1628 6.05966L12.5276 23.3613C12.4674 23.5857 12.3206 23.7769 12.1194 23.893C11.9182 24.009 11.6792 24.0404 11.4549 23.9802C11.2305 23.9201 11.0393 23.7732 10.9232 23.572C10.8072 23.3709 10.7758 23.1318 10.8359 22.9075L15.4723 5.60582C15.5021 5.49481 15.5534 5.39075 15.6234 5.29959C15.6934 5.20843 15.7807 5.13196 15.8803 5.07454C15.9798 5.01712 16.0897 4.97988 16.2037 4.96494C16.3177 4.95 16.4334 4.95767 16.5444 4.98749M19.1835 8.54932C19.3386 8.37686 19.556 8.27309 19.7877 8.26084C20.0194 8.24859 20.2464 8.32885 20.419 8.48399L22.4454 10.3087C23.3053 11.081 24.017 11.7227 24.507 12.3037C25.0203 12.9162 25.3866 13.573 25.3866 14.385C25.3866 15.1958 25.0215 15.8527 24.507 16.464C24.017 17.0462 23.3053 17.6878 22.4454 18.4602L20.419 20.2848C20.2464 20.4401 20.0193 20.5206 19.7875 20.5084C19.5557 20.4963 19.3382 20.3926 19.1829 20.2201C19.0275 20.0476 18.9471 19.8204 18.9592 19.5886C18.9714 19.3568 19.0751 19.1393 19.2476 18.984L21.2274 17.2025C22.1468 16.3753 22.7663 15.8142 23.1676 15.3382C23.5526 14.8797 23.6366 14.6125 23.6366 14.3838C23.6366 14.1552 23.5526 13.8892 23.1676 13.4307C22.7663 12.9535 22.1468 12.3923 21.2274 11.5663L19.2476 9.78482C19.162 9.70796 19.0925 9.61498 19.0429 9.51121C18.9933 9.40743 18.9646 9.2949 18.9585 9.18004C18.9525 9.06518 18.9691 8.95025 19.0075 8.84182C19.0459 8.7334 19.1053 8.63361 19.1823 8.54816M8.75228 9.78482C8.92478 9.62949 9.02852 9.412 9.04066 9.18019C9.0528 8.94838 8.97236 8.72124 8.81703 8.54874C8.6617 8.37624 8.44421 8.27251 8.2124 8.26036C7.98059 8.24822 7.75345 8.32866 7.58095 8.48399L5.55445 10.3087C4.69461 11.081 3.98295 11.7227 3.49295 12.3037C2.97961 12.9162 2.61328 13.573 2.61328 14.385C2.61328 15.1958 2.97845 15.8527 3.49295 16.464C3.98295 17.0462 4.69461 17.6878 5.55445 18.4602L7.58095 20.2848C7.75345 20.4401 7.98059 20.5206 8.2124 20.5084C8.44421 20.4963 8.6617 20.3926 8.81703 20.2201C8.97236 20.0476 9.0528 19.8204 9.04066 19.5886C9.02852 19.3568 8.92478 19.1393 8.75228 18.984L6.77245 17.2025C5.85311 16.3753 5.23361 15.8142 4.83228 15.3382C4.44728 14.8797 4.36328 14.6125 4.36328 14.3838C4.36328 14.1552 4.44728 13.8892 4.83228 13.4307C5.23361 12.9535 5.85311 12.3923 6.77245 11.5663L8.75228 9.78482Z" fill="black"/>
</svg>
